<svg xmlns="http://www.w3.org/2000/svg" xmlns:xlink="http://www.w3.org/1999/xlink" viewBox="0 0 32.55 56.25"><defs><style>.cls-1{fill:url(#radial-gradient);}.cls-2{fill:#8f816b;}</style><radialGradient id="radial-gradient" cx="16.27" cy="28.13" r="22.25" gradientUnits="userSpaceOnUse"><stop offset="0" stop-color="#fff3e6"/><stop offset="1" stop-color="#e6d5bc"/></radialGradient></defs><g id="Layer_2" data-name="Layer 2"><g id="Layer_1-2" data-name="Layer 1"><path class="cls-1" d="M6.06,55.5a10,10,0,0,1-1.61-.12c-.9-.15-2.11-1.06-3.52-6.81a.48.48,0,0,1-.06-.24C.69,47.31.49,45,2,43.58s8.18-6.09,9.76-7.21V32.82a106.33,106.33,0,0,0-.37-12.33C11,17.77,8.77,12.82,6.81,9.1a.78.78,0,0,1,0-.7,4.09,4.09,0,0,0-.53-.72A2.88,2.88,0,0,1,5.4,6c0-.26,0-1,3.64-5A.76.76,0,0,1,9.59.75H31.05a.76.76,0,0,1,.75.75V54.34a.75.75,0,0,1-.75.75H10a5.44,5.44,0,0,0-.64.09A20.09,20.09,0,0,1,6.06,55.5Z"/><path class="cls-2" d="M31.05,1.5V54.34H10a33.11,33.11,0,0,1-3.9.41,9.26,9.26,0,0,1-1.49-.11c-1.14-.19-2.17-3.19-2.94-6.35h0v0c-.05-.28-.53-2.83.89-4.12s10-7.38,10-7.38V32.82a104.81,104.81,0,0,0-.38-12.43C11.68,17.22,9,11.68,7.48,8.75a.57.57,0,0,0,.09-.22C7.72,7.79,6.15,6.74,6.15,6S9.59,1.5,9.59,1.5H31.05m0-1.5H9.59A1.55,1.55,0,0,0,8.48.48C4.65,4.66,4.65,5.49,4.65,6A3.45,3.45,0,0,0,5.71,8.16L6,8.51a1.53,1.53,0,0,0,.15.94C8.08,13.11,10.27,18,10.64,20.6A103.76,103.76,0,0,1,11,32.78V36C8.91,37.47,2.83,41.81,1.49,43-.31,44.67-.06,47.38.14,48.49a1.55,1.55,0,0,0,0,.23c1.22,5,2.42,7.11,4.13,7.4a10.53,10.53,0,0,0,1.74.13,21.83,21.83,0,0,0,3.38-.33l.56-.08H31.05a1.5,1.5,0,0,0,1.5-1.5V1.5A1.5,1.5,0,0,0,31.05,0Z"/></g></g></svg>