<svg xmlns="http://www.w3.org/2000/svg" xmlns:xlink="http://www.w3.org/1999/xlink" viewBox="0 0 350.5 56.25"><defs><style>.cls-1{isolation:isolate;}.cls-2{fill:url(#radial-gradient);}.cls-3{fill:#8f816b;}.cls-4{fill:#ebe6dd;mix-blend-mode:multiply;}.cls-5{mix-blend-mode:overlay;}.cls-6{fill:#fff;}</style><radialGradient id="radial-gradient" cx="170.61" cy="0.22" r="241.27" gradientUnits="userSpaceOnUse"><stop offset="0" stop-color="#fff3e6"/><stop offset="1" stop-color="#e6d5bc"/></radialGradient></defs><g class="cls-1"><g id="Layer_2" data-name="Layer 2"><g id="Layer_1-2" data-name="Layer 1"><path class="cls-2" d="M344.44,55.5a20.09,20.09,0,0,1-3.26-.32,5.44,5.44,0,0,0-.64-.09H3.3a.74.74,0,0,1-.74-.69,24,24,0,0,1,0-5.06,9.83,9.83,0,0,1,2-3.25c.29-.39.68-.89.83-1.14-.13-.36-.59-1.2-.93-1.83C3.29,41,2.59,39.61,2.68,38.78c0-.47.18-1.19.31-2a20.32,20.32,0,0,0,.38-2.59,7.37,7.37,0,0,0-.38-1A4.54,4.54,0,0,1,2.38,31a22.94,22.94,0,0,1,1.83-3.75c.39-.73.87-1.62,1-1.89s.06-.42.17-1.06A45,45,0,0,0,6,19.47c-.1-.35-1.2-2.22-2.08-3.72C1.38,11.51.67,10.17.76,9.48c.12-1,3.17-5.69,5-8.4A.76.76,0,0,1,6.35.75H340.91a.76.76,0,0,1,.55.24c3.64,4,3.64,4.74,3.64,5a2.88,2.88,0,0,1-.88,1.69,4.24,4.24,0,0,0-.54.73.87.87,0,0,1,0,.69c-2,3.72-4.19,8.67-4.58,11.4a105.89,105.89,0,0,0-.37,12.3v3.57c1.58,1.12,8.39,6,9.76,7.22,1.53,1.39,1.3,3.8,1.12,4.78a.8.8,0,0,1,0,.15c-1.42,5.79-2.63,6.71-3.53,6.86A10.27,10.27,0,0,1,344.44,55.5Z"/><path class="cls-3" d="M340.91,1.5s3.44,3.74,3.44,4.49-1.57,1.8-1.42,2.54a.57.57,0,0,0,.09.22c-1.54,2.93-4.2,8.47-4.65,11.64A104.81,104.81,0,0,0,338,32.82v3.94s8.5,6,10,7.38.94,3.84.89,4.12v0h0c-.77,3.16-1.8,6.16-2.94,6.35a9.13,9.13,0,0,1-1.48.11,33.1,33.1,0,0,1-3.91-.41H3.3a24.92,24.92,0,0,1,0-4.84c.29-1.38,2.81-3.89,2.87-4.49S3.3,40,3.42,38.86s.77-4.06.69-4.72-1.11-2.39-1-3.05,2.81-5.38,2.81-5.62.89-5.2.77-6.1-5.32-8.84-5.2-9.8S6.35,1.5,6.35,1.5H340.91m0-1.5H6.35A1.5,1.5,0,0,0,5.1.67C.18,8.07.06,9.06,0,9.38c-.11.9.37,1.9,3.22,6.75.75,1.27,1.75,3,2,3.52,0,.73-.45,3.54-.61,4.49-.07.5-.12.78-.14,1s-.58,1.11-.92,1.75c-1.39,2.61-1.81,3.44-1.9,4a5.09,5.09,0,0,0,.65,2.71c.11.26.28.65.32.81,0,.33-.23,1.59-.36,2.35s-.28,1.52-.33,2c-.11,1,.52,2.3,1.87,4.79.24.45.55,1,.74,1.4-.17.22-.39.51-.58.74A10.28,10.28,0,0,0,1.83,49.2a25,25,0,0,0,0,5.28A1.5,1.5,0,0,0,3.3,55.85H340.54l.52.08a20.67,20.67,0,0,0,3.39.33,10.49,10.49,0,0,0,1.73-.13c1.71-.28,2.9-2.41,4.11-7.32a1.18,1.18,0,0,0,.09-.38c.19-1.16.39-3.79-1.38-5.39-1.33-1.22-7.41-5.56-9.51-7.05V32.82a104.25,104.25,0,0,1,.37-12.22c.37-2.63,2.56-7.49,4.49-11.15a1.53,1.53,0,0,0,.15-.94l.3-.35A3.49,3.49,0,0,0,345.85,6c0-.5,0-1.33-3.83-5.51A1.55,1.55,0,0,0,340.91,0Z"/><path class="cls-4" d="M348.88,48.26v0h0c-.77,3.16-1.8,6.16-2.94,6.35a19.79,19.79,0,0,1-5.39-.3H329.08c4.4-1.06,7.63-2.63,8-4.93,1.15-7.83-11.66-13.41-9-18.15s.86-5.17-1.36-12-1.7-8.52,2.5-14.11a42.6,42.6,0,0,0,2.52-3.68h9.18s3.44,3.74,3.44,4.49-1.57,1.8-1.42,2.54a.57.57,0,0,0,.09.22c-1.54,2.93-4.2,8.47-4.65,11.64A104.81,104.81,0,0,0,338,32.82v3.94s8.5,6,10,7.38S348.93,48,348.88,48.26Z"/><path class="cls-4" d="M139.4,1.5V9.4L20,11.66,19,5.08s-13,1.16-13.3,1.81,1,12.48,1,12.48c-.12-.89-5.32-8.84-5.2-9.8S6.35,1.5,6.35,1.5Z"/><g class="cls-5"><path class="cls-6" d="M340.47,2.5A29.1,29.1,0,0,1,343.3,6c-.1.16-.3.39-.42.54a2.78,2.78,0,0,0-.94,2.11c-1.16,2.24-4.06,8.1-4.56,11.59A104.5,104.5,0,0,0,337,32.82v3.94a1,1,0,0,0,.43.82c2.92,2.06,8.75,6.24,9.9,7.3.72.65.78,2,.59,3.14v0c-1.17,4.8-2,5.53-2.17,5.61a8.38,8.38,0,0,1-1.28.09,18.75,18.75,0,0,1-3-.3,6.54,6.54,0,0,0-.92-.11H4.23a18.56,18.56,0,0,1,0-3.63,10.17,10.17,0,0,1,1.66-2.55c.81-1.05,1.18-1.53,1.23-2.05S6.93,44,6,42.3A17.67,17.67,0,0,1,4.42,39c0-.41.17-1.14.3-1.84A13.16,13.16,0,0,0,5.1,34a6.11,6.11,0,0,0-.5-1.45,8.18,8.18,0,0,1-.48-1.3c.17-.48,1.08-2.18,1.64-3.22,1.07-2,1.17-2.21,1.17-2.51,0-.14.08-.5.15-1a28.48,28.48,0,0,0,.61-5.3c-.07-.52-.52-1.35-2.3-4.38A54.81,54.81,0,0,1,2.52,9.64,80.19,80.19,0,0,1,6.89,2.5H340.47m.44-1H6.35S1.62,8.61,1.5,9.57s5.08,8.91,5.2,9.8-.77,5.86-.77,6.1-2.69,5-2.81,5.62.9,2.39,1,3.05-.57,3.59-.69,4.72S6.23,44.42,6.17,45,3.59,48.13,3.3,49.51a24.92,24.92,0,0,0,0,4.84H340.54a33.1,33.1,0,0,0,3.91.41,9.13,9.13,0,0,0,1.48-.11c1.14-.19,2.17-3.19,2.94-6.35h0v0c.05-.28.53-2.83-.89-4.12s-10-7.38-10-7.38V32.82a104.81,104.81,0,0,1,.38-12.43c.45-3.17,3.11-8.71,4.65-11.64a.57.57,0,0,1-.09-.22c-.15-.74,1.42-1.79,1.42-2.54s-3.44-4.49-3.44-4.49Z"/></g></g></g></g></svg>