<svg xmlns="http://www.w3.org/2000/svg" xmlns:xlink="http://www.w3.org/1999/xlink" viewBox="0 0 107.13 56.38"><defs><style>.cls-1{fill:url(#radial-gradient);}.cls-2{fill:url(#radial-gradient-2);}.cls-3{fill:url(#radial-gradient-3);}.cls-4{fill:url(#radial-gradient-4);}.cls-5{fill:url(#radial-gradient-5);}.cls-6{fill:url(#radial-gradient-6);}.cls-7{fill:url(#radial-gradient-7);}.cls-8{fill:url(#radial-gradient-8);}.cls-9{fill:url(#radial-gradient-9);}.cls-10{fill:url(#radial-gradient-10);}.cls-11{fill:url(#radial-gradient-11);}.cls-12{fill:url(#radial-gradient-12);}.cls-13{fill:url(#radial-gradient-13);}.cls-14{fill:url(#radial-gradient-14);}.cls-15{fill:url(#radial-gradient-15);}.cls-16{fill:url(#radial-gradient-16);}.cls-17{fill:url(#radial-gradient-17);}.cls-18{fill:url(#radial-gradient-18);}.cls-19{fill:url(#radial-gradient-19);}.cls-20{fill:url(#radial-gradient-20);}.cls-21{fill:url(#radial-gradient-21);}.cls-22{fill:url(#radial-gradient-22);}.cls-23{fill:url(#radial-gradient-23);}</style><radialGradient id="radial-gradient" cx="56.69" cy="28.19" r="36.54" gradientUnits="userSpaceOnUse"><stop offset="0" stop-color="#ff3b3b"/><stop offset="1" stop-color="#a80000"/></radialGradient><radialGradient id="radial-gradient-2" cx="15.55" cy="41.48" r="0.83" xlink:href="#radial-gradient"/><radialGradient id="radial-gradient-3" cx="58.83" cy="44.82" r="0.87" xlink:href="#radial-gradient"/><radialGradient id="radial-gradient-4" cx="91.82" cy="22.3" r="0.78" xlink:href="#radial-gradient"/><radialGradient id="radial-gradient-5" cx="15.24" cy="50.24" r="0.69" xlink:href="#radial-gradient"/><radialGradient id="radial-gradient-6" cx="24.12" cy="23.25" r="0.66" xlink:href="#radial-gradient"/><radialGradient id="radial-gradient-7" cx="29.28" cy="18.19" r="0.62" xlink:href="#radial-gradient"/><radialGradient id="radial-gradient-8" cx="81.79" cy="44.79" r="0.54" xlink:href="#radial-gradient"/><radialGradient id="radial-gradient-9" cx="37.85" cy="14.48" r="0.5" xlink:href="#radial-gradient"/><radialGradient id="radial-gradient-10" cx="84.18" cy="22.6" r="0.53" xlink:href="#radial-gradient"/><radialGradient id="radial-gradient-11" cx="0.47" cy="36.65" r="0.37" xlink:href="#radial-gradient"/><radialGradient id="radial-gradient-12" cx="17.46" cy="41.62" r="0.49" xlink:href="#radial-gradient"/><radialGradient id="radial-gradient-13" cx="106.62" cy="27.91" r="0.42" xlink:href="#radial-gradient"/><radialGradient id="radial-gradient-14" cx="90.05" cy="22.07" r="0.47" xlink:href="#radial-gradient"/><radialGradient id="radial-gradient-15" cx="73.6" cy="53.08" r="0.45" xlink:href="#radial-gradient"/><radialGradient id="radial-gradient-16" cx="73.91" cy="15.48" r="0.43" xlink:href="#radial-gradient"/><radialGradient id="radial-gradient-17" cx="98.34" cy="35.26" r="0.32" xlink:href="#radial-gradient"/><radialGradient id="radial-gradient-18" cx="68.52" cy="12.95" r="2.83" xlink:href="#radial-gradient"/><radialGradient id="radial-gradient-19" cx="58.54" cy="42.73" r="1.33" xlink:href="#radial-gradient"/><radialGradient id="radial-gradient-20" cx="37.54" cy="42.05" r="0.9" xlink:href="#radial-gradient"/><radialGradient id="radial-gradient-21" cx="61.32" cy="43.23" r="1.27" xlink:href="#radial-gradient"/><radialGradient id="radial-gradient-22" cx="66.52" cy="16.94" r="0.81" xlink:href="#radial-gradient"/><radialGradient id="radial-gradient-23" cx="34.56" cy="41.05" r="0.8" xlink:href="#radial-gradient"/></defs><g id="Layer_2" data-name="Layer 2"><g id="Layer_1-2" data-name="Layer 1"><path class="cls-1" d="M81.2,45.09l2.21,2.76c-.75.41-1.46.34-1.76-.39-.75-1.83-2.33-2.66-3.89-3.59A42.67,42.67,0,0,1,74,41.2c-.35-.26-.56-.33-.93-.09a2.25,2.25,0,0,1-.71.19l-.21-.93,1.57.34L74,39.18l-.21-.06c-.12.14-.24.29-.37.43-.51.59-1.32.61-1.41-.09-.16-1.08-.92-1.5-1.58-2.05a13.39,13.39,0,0,0-2.49-1.63l.29,1.27a2.64,2.64,0,0,0-.35,4c.65.7,1.38,1.32,2.07,2l.69-.57c.08.1.25.25.23.29a5.74,5.74,0,0,1-.52.66c.83,1,1.7,2.15,2.62,3.23.14.17.47.18.71.27a3.36,3.36,0,0,1,1,.38c.21.17.42.64.32.83a1.18,1.18,0,0,1-.84.51A2.69,2.69,0,0,1,73,48.51c-.62-.17-.68-.42-.42-1a.67.67,0,0,0-.14-.59c-.85-.79-1.78-1.5-2.58-2.33a6.09,6.09,0,0,0-3-1.87c-1.7-.36-3-1.41-4.6-2a1,1,0,0,0-.73,0c-.32.17-.09.36.06.57s-.09.34-.15.56c1.29.8,3.15.28,4.28,1.81H64.07l3.47,2.14-.11.21-.77-.28.32.73c-1-.41-1.82-.71-2.6-1.1s-1.52-.84-2.29-1.26c-.24-.13-.49-.46-.79,0s-.38.77,0,1.08a4.63,4.63,0,0,0,1.19.71c.82.35,1.66.65,2.49,1a.52.52,0,0,1,.31.4L62.17,46l-.07.12,3.52,2.31-.13.2c-1.13-.35-1.93-1.28-3-1.84l-.27,1h-.09a1,1,0,0,1,0-.34c.13-.53.15-1-.47-1.26-.44-.21-.79-.55-1.35-.38a1.93,1.93,0,0,1-1.74-.44A1.18,1.18,0,0,0,59.93,45c-.31-.27-.58-.69-.91-.74a3,3,0,0,0-1.28.29.77.77,0,0,0,.1.46c.1.12.32.15.48.21L56.5,45l1.57,4a3.55,3.55,0,0,1-1.7-2c-.35-.92-.5-1-1.47-.84-.13,0-.4-.12-.41-.22-.14-.76-.67-.85-1.29-.82H53c-1,.05-1.08,0-1.08-1a2.45,2.45,0,0,0-.05-.36l-1,.08A6.42,6.42,0,0,1,51.44,45a1.25,1.25,0,0,1-.14.91.46.46,0,0,1-.78-.07c0-.06-.32,0-.48.07l-1.11.18c.32,1.69-.93,2.68-2,3.86h1.38c-.46.87-.49.82-1.42,1.2-.57.23-1.13.49-1.26,1.31a22.13,22.13,0,0,1-.84,2.93,1.79,1.79,0,0,1-2.25.88c-.39-.22-.35-.53-.06-.76a3,3,0,0,0,1-1.83,9,9,0,0,1,1.76-3.43c.46-.61.9-1.25,1.49-2.06-.88,0-1.57,0-2.25-.08s-1.36-.3-2.12-.48l.92-.14-.15-.1c.17-.3.3-.81.52-.86.57-.14.85.33,1,.9l1.68-.27c-1.2-1.1.22-1.54.49-2.44l-.9.5.06-.67-1.52-.33c.34-.31.88-.61.2-1.15-.11-.09.15-.62.2-.83-.64-.32-1.22-.66-1.85-.9a1.56,1.56,0,0,0-1,0,12.07,12.07,0,0,0-4.35,3.58l-.58.68a11,11,0,0,0-2.75,4.61A25.36,25.36,0,0,0,34,54.07a1.93,1.93,0,0,1-2.38,2c-.64-.08-.83-.39-.44-.89a6,6,0,0,0,.86-3,17.19,17.19,0,0,1,1-3.15c.27-.67.66-1.3,1-2-.93-.29-1-.54-.44-1.28a2.18,2.18,0,0,1,.8-.68,1.28,1.28,0,0,0,.83-1.61L35,42.65a3.6,3.6,0,0,1-2.61-.15l.72-.52-.18-.07a5.89,5.89,0,0,1,.63-1.66,1.87,1.87,0,0,0-.16-2.86,3.33,3.33,0,0,1-.36-.48,6.24,6.24,0,0,1-1.53.27,2.5,2.5,0,0,1-1.2-.59A9.51,9.51,0,0,0,26.14,39a34.72,34.72,0,0,0-2.59,3.07c-.64.8-1.2,1.67-1.89,2.42a4.5,4.5,0,0,1-2.76,1.39c-.77.12-1.06-.27-.75-1A3.37,3.37,0,0,1,20,43c.47-.19.95-.38,1.42-.59s.68-.4.27-.86a.92.92,0,0,0,.27-.15c.64-.83,1.27-1.67,1.9-2.51a2.51,2.51,0,0,1,.4-.5c1-.73,2-1.44,3-2.16l-.09-.18c-.34.13-.7.23-1,.39-.53.25-1,.56-1.55.79a16,16,0,0,1-1.8.63A6.62,6.62,0,0,0,19.73,40a2.94,2.94,0,0,1-2.9,1,3.78,3.78,0,0,1-.79-.37,6.47,6.47,0,0,1,.54-.46c2.06-1.16,4.09-2.36,6.18-3.45a9,9,0,0,1,2.4-.74,4.59,4.59,0,0,0,2.18-1.47,6.5,6.5,0,0,1,1-.78.53.53,0,0,0,.16-.89A14.42,14.42,0,0,0,27,31.37a11.06,11.06,0,0,0-1-.66l1.35-.24c0-.09,0-.16,0-.17a33.92,33.92,0,0,0-3.59-1.86c-.44-.18-1.11.24-1.68.38a9.11,9.11,0,0,1-1.52.31c-1,0-2-.05-3.05,0-.85,0-1.72.22-2.41-.45a3.4,3.4,0,0,1-.42-.72c.24-.13.47-.28.71-.39a.79.79,0,0,1,.4-.07,6.37,6.37,0,0,0,3.79-.8,2.62,2.62,0,0,1,1.17-.18c1-.07,1.36.42.88,1.37a10.84,10.84,0,0,0,4.74-.55l0-.28-13-3.82,0-.22a5.53,5.53,0,0,1,1.11-.3,1.57,1.57,0,0,1,.76.22,8.64,8.64,0,0,0,4.74.82,22.85,22.85,0,0,1,4.7.47c.23,0,.46.3.65.49s.49.56.86,1a4.49,4.49,0,0,1,0-.54c.06-.22.1-.59.22-.61a1.57,1.57,0,0,1,.88.09c.53.23,1,.53,1.54.8l.13-.17-.08-.47c.77.29,1.41.85,2.3.59.16-.05.38.17.59.23a3.41,3.41,0,0,0,.57.08c-.46-.86-.89-1.79-1.44-2.64a2.32,2.32,0,0,0-1.13-.87c-1.18-.38-2.39-.65-3.67-1l.09.67c-.14,0-.34.09-.37,0a2.48,2.48,0,0,1-.27-.54l.14-.12c-1.33-.44-2.66-.89-4-1.28a3,3,0,0,0-1,.08,5.27,5.27,0,0,1-1.31.07.5.5,0,0,1-.2-.94,3.3,3.3,0,0,1,1.29-.44c.19,0,.42.28.62.45s.29.4.46.43c2.27.37,4.53.75,6.8,1.05a12.23,12.23,0,0,0,5.25-.79A17.47,17.47,0,0,0,36.07,19a2.72,2.72,0,0,0,1-1c.31-.52,0-.84-.59-.94a1.84,1.84,0,0,1-1-.51,1.07,1.07,0,0,1-.11-.94.63.63,0,0,1,1-.21,11.64,11.64,0,0,1,1.38,1.34,8.91,8.91,0,0,1,.69,1c.49-.31,1.19-.37.95-1.22H40l-.15-.88,1.61.7A1.73,1.73,0,0,0,41,14.17c-.63-.49-1.07-.41-1.55.23-.08.12-.29.15-.44.22a1,1,0,0,1,.06-.47c.43-.7.29-1.1-.53-1.39-.42-.15-.83-.32-.73-.87s.5-.65,1-.66.79,0,1.28,0A4.48,4.48,0,0,0,39,9.64c-.58-.81-1.22-.11-1.92-.45l4.62-1.57,0,.08L39.6,9.3c1.31.1,1.14,1,1.34,1.84L43,10.62c0,.43,0,.73.61.87s.49,1.57-.1,2.09a5.29,5.29,0,0,1-.78.52,1.15,1.15,0,0,0-.54,1.64c.17.49.29,1,.46,1.61.21-.29.48-.61.7-1,.54-.87.78-.94,1.66-.44a2,2,0,0,0,.52.3c.69.12,1.26.31,1.36,1.15,0,.15.36.33.58.36.59.09,1.19.11,1.85.16-.07-.2-.1-.32-.15-.44-.24-.5-.12-.81.46-.9a2.21,2.21,0,0,0,.52-.14c.31-.15.45-.35.19-.68a10.39,10.39,0,0,1-.76-1,1.67,1.67,0,0,1-.32-.89c0-.14.51-.22.82-.35L47.41,10l.17-.19a8,8,0,0,1,1.69,1.39c.88,1.25,2.31,1.21,3.5,1.71.25.11.65-.07,1-.16a.78.78,0,0,1,1.13.58c.22.69.28.7,1,.21a9.47,9.47,0,0,1-.75-.81c-.27-.35-.66-.78-.15-1.15s.81.16,1.06.5.54.85.8,1.28a1,1,0,0,0,.57-1.19,3.78,3.78,0,0,0-.32-1.15,2.86,2.86,0,0,1,.2-2.92,9.13,9.13,0,0,0,.94-6.21C58.06.74,58.47.15,59.61,0c.55-.07.86.18.67.67A10.54,10.54,0,0,0,60,3.84a15.17,15.17,0,0,1-.69,2.77,22.75,22.75,0,0,0-.79,2.76,3.69,3.69,0,0,0,.25,2.06,1.75,1.75,0,0,1-.1,1.92c-.26.42-.44.87.06,1.34.33-.8.64-1.53,1-2.26A1.9,1.9,0,0,1,61,11.24c.28-.07.51-.39.78-.4a3,3,0,0,1,1,.25c-.25.34-.36.62-.57.75a1.77,1.77,0,0,1-.92.28.83.83,0,0,0-.9.64c-.69,1.72-.64,1.57.84,3l.27-.46c.6.4,1.56-.34,1.92.7l.72-.42-.15-1.27c.05,0,.11,0,.12,0,.72.88.8.88,1.67.12a9.28,9.28,0,0,0,2.57-3.62,5,5,0,0,1,2.66-3,5.1,5.1,0,0,1,1.25-.19c0,.44-.08.89-.14,1.34s-.15.71-.17,1.07c0,.61,0,1.23,0,1.91a2.62,2.62,0,0,1,2.67-.24l-.8.57c-.58.42-1.16.82-1.72,1.26-.36.29-.41.62,0,.92a2.2,2.2,0,0,1,.88,1.36,1.29,1.29,0,0,0,.78.71c1.69.66,1.7.64.65,2.15a1.17,1.17,0,0,0-.11.31l1.27.29c.11-.57.16-1.06.29-1.52A1.57,1.57,0,0,1,77,16.38c.49-.09.78.1.71.59a5.5,5.5,0,0,1-.38,1.19c-.18.45-.4.88-.6,1.32l.14.19A3.47,3.47,0,0,0,78,19.29a11.49,11.49,0,0,0,2-1.94,7.34,7.34,0,0,1,3.57-2.69,24.5,24.5,0,0,0,3-1.16,11.16,11.16,0,0,0,3.63-2.18A40,40,0,0,1,93.3,8.5a3.22,3.22,0,0,1,3.48-.61c.26.1.59.44.59.68a.91.91,0,0,1-.6.64,7.49,7.49,0,0,0-3.21,2c-.78.69-1.66,1.26-2.42,1.82l.65.68c-.18.16-.39.46-.52.43a6,6,0,0,1-1.12-.47v.27C90.08,14,90,14,90,14c-.56-.26-1,0-1.49.26-1,.46-2,.92-3.06,1.34a9.64,9.64,0,0,0-4.38,3.7,3.12,3.12,0,0,1-1.59,1.25,14.4,14.4,0,0,0-1.84.8,3.9,3.9,0,0,0-.78.79l.16.19c.9-.44,1.79-.92,2.72-1.29s1.8-.57,2.71-.84l.13.26a6.66,6.66,0,0,1-1,.77c-.8.41-1.64.72-2.43,1.13a1.38,1.38,0,0,0-.63.7A19.9,19.9,0,0,0,78,25.11c2.39.42,2.38.92,2,1.86,1.61,0,3.16.08,4.7,0a24.21,24.21,0,0,0,7.6-2,11.78,11.78,0,0,1,5.51-1.13,6.92,6.92,0,0,1,1.63.32c.68.23.75.68.12,1a11.47,11.47,0,0,1-2.65,1,5.29,5.29,0,0,1-1.9,0,4.39,4.39,0,0,0-2.93.58,22.15,22.15,0,0,1-2.91,1.12c-1.89.72-3.91.56-5.87.81a1.29,1.29,0,0,0-.65.25,5.29,5.29,0,0,0,.79.17c.55,0,1.11,0,1.67.07,1.86.14,3.72.34,5.58.4.81,0,1.62-.29,2.44-.34a17.4,17.4,0,0,1,2.7,0,1.71,1.71,0,0,1,.88.55.82.82,0,0,1,.2.65c0,.1-.37.2-.57.2-2.32.05-4.63.11-6.94.11A32.29,32.29,0,0,1,86,30.58c-.51,0-1-.36-1.5-.46A6.22,6.22,0,0,0,82.73,30c-.88.11-1.74.36-2.61.55a1.83,1.83,0,0,1-.52,0c-.82-.08-1.21.1-1.24.9a22.26,22.26,0,0,0,.23,2.94L77,33.86a8.24,8.24,0,0,0,.28,1c.32.78.67,1.55,1,2.32s1.38,1.23,2.77.89a3.23,3.23,0,0,1-.7-.22,2.51,2.51,0,0,1-.61-.51c-.06-.08.09-.45.12-.45a4.75,4.75,0,0,1,.81.19c.08,0,.14.11.2.17,2.65,2.5,1.69,2.14,5,3.51a2.66,2.66,0,0,1,.53.28,1.2,1.2,0,0,1,.34,1.51c-.32.56-.8.44-1.29.27a1.77,1.77,0,0,1-.48-.23,7.5,7.5,0,0,0-3.86-1.14,4.14,4.14,0,0,1-1.47-.37c-.3-.14-.69-.55-.65-.78s.48-.54.76-.79c0,0,.16,0,.5-.11-.27-.15-.4-.22-.52-.3a11.51,11.51,0,0,0-4.05-1.67,1.9,1.9,0,0,0-.68.13,2.28,2.28,0,0,0,.27.64,19,19,0,0,0,1.5,1.61c.15.14.46.12.54.25a4.58,4.58,0,0,0,.44,1c.65.85,1.34,1.68,2,2.49a3.74,3.74,0,0,0,.68.52l.7,1.06ZM71.07,9.87a2.13,2.13,0,0,0-1.71,1.8A6.21,6.21,0,0,1,68,14a21.22,21.22,0,0,1-2,1.87l.12.17a5.85,5.85,0,0,0,1.18-.73,3.89,3.89,0,0,1,2-1.16,1.39,1.39,0,0,0,.87-.79C70.53,12.23,70.77,11.08,71.07,9.87ZM60,41.62c-.78-.23-1.07.27-1.43.65-.64.68-.71.67-1.39,0a1.15,1.15,0,0,0-.1.74,5.15,5.15,0,0,0,.52.92A8.18,8.18,0,0,0,60,41.62ZM37,43.15a9.83,9.83,0,0,0,.93-1,1.63,1.63,0,0,0,.22-.85c0-.11-.27-.34-.38-.32-.46.09-.93.24-.88.87C36.94,42.29,37,42.76,37,43.15Zm22.63-.52a10.91,10.91,0,0,0,.86.89,2.14,2.14,0,0,0,.62.26l.22-.34L60.56,43a5.06,5.06,0,0,1,1.22.46l1.13.49.07-.2C61.91,43.32,61.05,42.23,59.65,42.63Zm7.63-26.56-1.51,1.67C66.78,18,67.29,17.42,67.28,16.07ZM34.68,40.25l-.91,1.42.19.18,1.39-1.25Z"/><path class="cls-2" d="M15.49,42.17c-.38-.28-.89-.49-.88-.68,0-.55.54-.69,1-.7s1,0,.86.56C16.43,41.65,15.89,41.86,15.49,42.17Z"/><path class="cls-3" d="M58.32,45.24c-.16-.06-.38-.09-.48-.21a.77.77,0,0,1-.1-.46A3,3,0,0,1,59,44.28c.33,0,.6.47.91.74a1.18,1.18,0,0,1-1.39.25Z"/><path class="cls-4" d="M91.8,21.62c.37.28.85.45.88.69.06.45-.36.68-.81.67s-.94-.13-.91-.65C91,22.1,91.45,21.9,91.8,21.62Z"/><path class="cls-5" d="M15.23,50.81l-.78-.57c.28-.2.55-.51.85-.56s.48.29.72.45Z"/><path class="cls-6" d="M24.24,23.87l-.82-.76c.22-.16.43-.43.68-.48s.77.08.71.55C24.79,23.39,24.51,23.57,24.24,23.87Z"/><path class="cls-7" d="M29.27,17.59l.65.71c-.2.17-.43.51-.58.48s-.47-.35-.7-.54Z"/><path class="cls-8" d="M81.23,45.11c0-.26,0-.6.18-.74a.8.8,0,0,1,.71.07c.15.1.18.4.26.61a2.26,2.26,0,0,1-.63.22,1.77,1.77,0,0,1-.55-.18Z"/><path class="cls-9" d="M37.94,15l-.57-.68a1.66,1.66,0,0,1,.57-.35c.12,0,.39.23.39.35S38.13,14.68,37.94,15Z"/><path class="cls-10" d="M84.83,22.7c-.4.16-.62.33-.75.28s-.37-.31-.55-.47c.17-.11.35-.32.5-.29S84.44,22.45,84.83,22.7Z"/><path class="cls-11" d="M0,36.45c.3,0,.6,0,.9,0a2.59,2.59,0,0,1,0,.44H0Z"/><path class="cls-12" d="M18.11,41.7c-.34.06-.67.14-1,.17-.09,0-.19-.16-.29-.25.1-.09.21-.26.32-.25a8.07,8.07,0,0,1,.95.14Z"/><path class="cls-13" d="M107.13,27.71c-.34.58-.65.6-1,.33-.08-.06,0-.28,0-.43Z"/><path class="cls-14" d="M89.43,21.94a7.84,7.84,0,0,1,1-.11c.1,0,.19.19.28.29-.12.07-.25.2-.36.2a8.39,8.39,0,0,1-.84-.18Z"/><path class="cls-15" d="M74.14,53.16c-.33.13-.52.27-.65.23s-.29-.25-.44-.39c.15-.09.31-.26.44-.25S73.82,53,74.14,53.16Z"/><path class="cls-16" d="M74.44,15.52c-.31.14-.46.28-.59.26a1.54,1.54,0,0,1-.47-.28c.14-.11.28-.3.43-.31S74.12,15.34,74.44,15.52Z"/><path class="cls-17" d="M98.69,35.49a6.31,6.31,0,0,1-.73-.15A1.65,1.65,0,0,1,98,35c.25,0,.49,0,.73.08Z"/><path class="cls-18" d="M71.07,9.87c-.3,1.21-.54,2.36-.9,3.47a1.39,1.39,0,0,1-.87.79,3.89,3.89,0,0,0-2,1.16,5.85,5.85,0,0,1-1.18.73L66,15.85A21.22,21.22,0,0,0,68,14a6.21,6.21,0,0,0,1.36-2.31A2.13,2.13,0,0,1,71.07,9.87Z"/><path class="cls-19" d="M60,41.62a8.18,8.18,0,0,1-2.4,2.27A5.15,5.15,0,0,1,57.1,43a1.15,1.15,0,0,1,.1-.74c.68.71.75.72,1.39,0C59,41.89,59.24,41.39,60,41.62Z"/><path class="cls-20" d="M37,43.15c0-.39-.08-.86-.11-1.33,0-.63.42-.78.88-.87.11,0,.39.21.38.32a1.63,1.63,0,0,1-.22.85A9.83,9.83,0,0,1,37,43.15Z"/><path class="cls-21" d="M59.65,42.63c1.4-.4,2.26.69,3.33,1.09l-.07.2-1.13-.49A5.06,5.06,0,0,0,60.56,43l.79.47-.22.34a2.14,2.14,0,0,1-.62-.26A10.91,10.91,0,0,1,59.65,42.63Z"/><path class="cls-22" d="M67.28,16.07c0,1.35-.5,1.93-1.51,1.67Z"/><path class="cls-23" d="M34.68,40.25l.67.35L34,41.85l-.19-.18Z"/></g></g></svg>