<svg xmlns="http://www.w3.org/2000/svg" xmlns:xlink="http://www.w3.org/1999/xlink" viewBox="0 0 79.18 88.59"><defs><style>.cls-1{fill:url(#radial-gradient);}.cls-2{fill:url(#radial-gradient-2);}.cls-3{fill:url(#radial-gradient-3);}.cls-4{fill:url(#radial-gradient-4);}.cls-5{fill:url(#radial-gradient-5);}.cls-6{fill:url(#radial-gradient-6);}.cls-7{fill:url(#radial-gradient-7);}.cls-8{fill:url(#radial-gradient-8);}.cls-9{fill:url(#radial-gradient-9);}.cls-10{fill:url(#radial-gradient-10);}.cls-11{fill:url(#radial-gradient-11);}.cls-12{fill:url(#radial-gradient-12);}.cls-13{fill:url(#radial-gradient-13);}.cls-14{fill:url(#radial-gradient-14);}.cls-15{fill:url(#radial-gradient-15);}.cls-16{fill:url(#radial-gradient-16);}.cls-17{fill:url(#radial-gradient-17);}.cls-18{fill:url(#radial-gradient-18);}.cls-19{fill:url(#radial-gradient-19);}.cls-20{fill:url(#radial-gradient-20);}.cls-21{fill:url(#radial-gradient-21);}.cls-22{fill:url(#radial-gradient-22);}.cls-23{fill:url(#radial-gradient-23);}.cls-24{fill:url(#radial-gradient-24);}.cls-25{fill:url(#radial-gradient-25);}.cls-26{fill:url(#radial-gradient-26);}.cls-27{fill:url(#radial-gradient-27);}.cls-28{fill:url(#radial-gradient-28);}.cls-29{fill:url(#radial-gradient-29);}.cls-30{fill:url(#radial-gradient-30);}.cls-31{fill:url(#radial-gradient-31);}.cls-32{fill:url(#radial-gradient-32);}.cls-33{fill:url(#radial-gradient-33);}.cls-34{fill:url(#radial-gradient-34);}.cls-35{fill:url(#radial-gradient-35);}.cls-36{fill:url(#radial-gradient-36);}</style><radialGradient id="radial-gradient" cx="36.16" cy="3.83" r="2.81" gradientUnits="userSpaceOnUse"><stop offset="0" stop-color="#ff3b3b"/><stop offset="1" stop-color="#a80000"/></radialGradient><radialGradient id="radial-gradient-2" cx="40.83" cy="49.44" r="28.37" xlink:href="#radial-gradient"/><radialGradient id="radial-gradient-3" cx="34.22" cy="79.42" r="5.66" xlink:href="#radial-gradient"/><radialGradient id="radial-gradient-4" cx="1.49" cy="64.74" r="1.2" xlink:href="#radial-gradient"/><radialGradient id="radial-gradient-5" cx="14.48" cy="44.98" r="1.2" xlink:href="#radial-gradient"/><radialGradient id="radial-gradient-6" cx="26.81" cy="74.34" r="2.39" xlink:href="#radial-gradient"/><radialGradient id="radial-gradient-7" cx="67.41" cy="25.85" r="2.52" xlink:href="#radial-gradient"/><radialGradient id="radial-gradient-8" cx="40.65" cy="76.24" r="1.44" xlink:href="#radial-gradient"/><radialGradient id="radial-gradient-9" cx="10.76" cy="82.27" r="1.22" xlink:href="#radial-gradient"/><radialGradient id="radial-gradient-10" cx="48.42" cy="80.21" r="0.93" xlink:href="#radial-gradient"/><radialGradient id="radial-gradient-11" cx="18.46" cy="79.02" r="0.78" xlink:href="#radial-gradient"/><radialGradient id="radial-gradient-12" cx="39.6" cy="81.48" r="0.88" xlink:href="#radial-gradient"/><radialGradient id="radial-gradient-13" cx="16.12" cy="74.53" r="0.77" xlink:href="#radial-gradient"/><radialGradient id="radial-gradient-14" cx="43.94" cy="78.45" r="1.34" xlink:href="#radial-gradient"/><radialGradient id="radial-gradient-15" cx="9.27" cy="33.77" r="1.53" xlink:href="#radial-gradient"/><radialGradient id="radial-gradient-16" cx="54.61" cy="36.06" r="1.3" xlink:href="#radial-gradient"/><radialGradient id="radial-gradient-17" cx="29.01" cy="86.68" r="1.36" xlink:href="#radial-gradient"/><radialGradient id="radial-gradient-18" cx="58.26" cy="41.6" r="1.29" xlink:href="#radial-gradient"/><radialGradient id="radial-gradient-19" cx="31.91" cy="28.43" r="0.65" xlink:href="#radial-gradient"/><radialGradient id="radial-gradient-20" cx="1.42" cy="54.72" r="0.59" xlink:href="#radial-gradient"/><radialGradient id="radial-gradient-21" cx="43" cy="81.88" r="0.81" xlink:href="#radial-gradient"/><radialGradient id="radial-gradient-22" cx="37.11" cy="26.16" r="1.14" xlink:href="#radial-gradient"/><radialGradient id="radial-gradient-23" cx="49.26" cy="41.03" r="0.6" xlink:href="#radial-gradient"/><radialGradient id="radial-gradient-24" cx="49.41" cy="69.36" r="0.72" xlink:href="#radial-gradient"/><radialGradient id="radial-gradient-25" cx="53.44" cy="78.15" r="0.55" xlink:href="#radial-gradient"/><radialGradient id="radial-gradient-26" cx="8.65" cy="52.92" r="0.54" xlink:href="#radial-gradient"/><radialGradient id="radial-gradient-27" cx="78.22" cy="52.03" r="0.73" xlink:href="#radial-gradient"/><radialGradient id="radial-gradient-28" cx="49.74" cy="78.84" r="0.7" xlink:href="#radial-gradient"/><radialGradient id="radial-gradient-29" cx="53.08" cy="41.61" r="0.71" xlink:href="#radial-gradient"/><radialGradient id="radial-gradient-30" cx="11.03" cy="41.15" r="0.62" xlink:href="#radial-gradient"/><radialGradient id="radial-gradient-31" cx="42.29" cy="70.76" r="0.5" xlink:href="#radial-gradient"/><radialGradient id="radial-gradient-32" cx="24.03" cy="34.83" r="0.58" xlink:href="#radial-gradient"/><radialGradient id="radial-gradient-33" cx="30.32" cy="27.31" r="1" xlink:href="#radial-gradient"/><radialGradient id="radial-gradient-34" cx="52.4" cy="68.83" r="0.79" xlink:href="#radial-gradient"/><radialGradient id="radial-gradient-35" cx="25.86" cy="69.94" r="0.82" xlink:href="#radial-gradient"/><radialGradient id="radial-gradient-36" cx="37.54" cy="69.99" r="0.5" xlink:href="#radial-gradient"/></defs><g id="Layer_2" data-name="Layer 2"><g id="Layer_1-2" data-name="Layer 1"><path class="cls-1" d="M35.77,0c.17.5.37,1,.51,1.49.29,1.05.61,2.1.8,3.18a15.92,15.92,0,0,1,.13,2.5c0,.16-.18.33-.28.49-.17-.1-.45-.17-.5-.31a22.53,22.53,0,0,1-.77-2.63c-.23-1.11-.33-2.24-.5-3.36A1.21,1.21,0,0,1,35.61,0Z"/><path class="cls-2" d="M25.55,68.82a2.32,2.32,0,0,0-.39.83,10.79,10.79,0,0,0,.14,1.71c-.27-.26-.38-.31-.4-.39a17,17,0,0,0-1-3.6,2.46,2.46,0,0,0-2-1.13A3.85,3.85,0,0,1,20.36,66a5,5,0,0,1-2-1,2.22,2.22,0,0,1-.75-1.84v-.84L15,62.45l-.09-.27,2.58-.93a2.16,2.16,0,0,1,0-.76c.23-.78.26-.77-.22-.8l-1.74-1.75a4.27,4.27,0,0,0-.5-1.69,3,3,0,0,0-1.71-.86c-1-.17-1.11-.18-1.13-1.28,0-.34-.29-.67-.43-1a4.41,4.41,0,0,1-.16-.65,3.32,3.32,0,0,1,.75-.15c.23,0,.46.21.69.21a1.24,1.24,0,0,0,.74-.18c.09-.07,0-.41-.07-.58l.5-.58a4.64,4.64,0,0,0-1-.64.85.85,0,0,0-.7.36c-.45,1-.56,1.08-1.73.47.62-.52.85-1.41,1.85-1.43.48,0,.68-.26.72-.77.1-1.18.65-1.43,1.69-.87a8,8,0,0,0,1.41.62c.21.06.64,0,.72-.15.17-.33.13-.79.3-1.12.29-.56,0-.7-.42-.91a.49.49,0,0,1-.17-.6A10.69,10.69,0,0,0,17.52,45a1.07,1.07,0,0,1,1.21-.72,3.15,3.15,0,0,0,1.39-.19.64.64,0,0,0,0-1.19l-2.29-1.38.25-.81c-.92-.24-1.82-.53-2.73-.71s-1.78-.21-2.66-.34a2.5,2.5,0,0,1-.65-.29l0-.25a3.33,3.33,0,0,1,.63,0c1.48.14,3,.27,4.43.43a2,2,0,0,1,.69.33l2.23,1.27L20,40.36l.18,0,1-.09c-.11-.32-.21-.64-.32-1s-.18-.43-.36-.84l.79.43.18-.11L19.31,34l.27-.14,2.68,4.53c.46-.41.06-.82-.12-1.23s-.4-.78-.56-1.1l2.05.82c.68-.35,1.39-.74,1.43-1.69a5,5,0,0,0,0-.55c0-.44-.09-.87-.13-1.3l.34-.1a6.6,6.6,0,0,0,.89,1.56,7,7,0,0,0,1.6.93l.26-.16c0-1.62-.07-3.24,0-4.86a13.58,13.58,0,0,1,.59-2.36l.25,0,.42,1.08c-.67.8-.32,1.67-.36,2.51l.26.1.68-1.25c.9.51,1.17,1.49,1.67,2.39s1.18,2.33,2.61,2.51c.84-1.84-.46-3.5-.56-5.26h.21c.48.64.95,1.29,1.45,1.92A13.94,13.94,0,0,0,37,34.21c-.1-.54-.21-1.08-.29-1.63s-.7-1.32.17-1.91c.1-.07,0-.51-.08-.77-.1-.45-.22-.89-.37-1.47,1,.2.64,1.1,1,1.56.52-.19.52-.19.1-2.26h0c.13.24.25.49.38.74s.28.53.41.8l.25-.07c-.27-2.09-.53-4.19-.79-6.28l.2,0,1.27,6.66.94-.21c.41,1.79.25,3.72,1.49,5.22a3.07,3.07,0,0,1,2.66-.29l1-5.32c.07,2-.63,4.08.69,6,1.25-.92,1.24-2.62,2.14-3.77l.28.09c-.19.68-.33,1.39-.58,2-.5,1.35-1.44,2.56-1.28,4.11,0,.12,0,.24.11.53l.66-1.09c.11.42.16.65.23.87s.14.31.21.47c.16-.1.4-.17.49-.32.23-.39.39-.82.6-1.23a7.71,7.71,0,0,1,.49-.77l.25.11a4.5,4.5,0,0,1-.21.74c-.42.84-1,1.63-.55,2.66.06.14-.08.44-.21.58-.93,1-1,1.27-.08,2.43.14-.05.3-.16.43-.13,1.12.23,1.38-.64,1.89-1.32a21.85,21.85,0,0,1,2.35-2.47c-.29.75-.07,1.74-1.2,2.08-.24.08-.44.63-.47,1-.14,1.55-.21,3.1-.3,4.66l.29.05.93-2.71c-.06,1.29-.86,2.5-.26,4,.34-.28.59-.51.86-.7a4.15,4.15,0,0,1,.57-.35,5.87,5.87,0,0,1,.08.72c0,.19-.11.37-.11.56s0,.55.11.57a1.8,1.8,0,0,0,.76-.06c.28-.07.54-.19.87-.31a6.62,6.62,0,0,1-.81,2.19A2.44,2.44,0,0,0,54,52.57s0,.11,0,.31c.49.08,1,.16,1.57.27.14,0,.26.18.38.27-.13.09-.31.28-.4.25-1.21-.51-1.91.21-2.66,1.12l2.88,1,0,.26L54.37,56a3.19,3.19,0,0,0-.87,0,2.66,2.66,0,0,0-.65.4c.2.13.41.24.6.37.5.37,1,.75,1.5,1.11a6.1,6.1,0,0,0,.72.37,2.14,2.14,0,0,0,.06-.7c-.19-.76.48-.76.83-.83a21.07,21.07,0,0,1,2.65-.32,1.64,1.64,0,0,1,.5.14l0,.24L56,58.06c.72.37,1.36.69,2,1,.13.07.29.22.29.34,0,.87.44.79,1,.47,0,0,.15,0,.22.05l-.69,1c1.19.3,1.19.3,1.24-.66a.51.51,0,0,1,.1-.29c.48-.63,1-1.25,1.46-1.89a4.13,4.13,0,0,0,.35-.76c.52,0,1.18.26,1.33-.59,0-.05.23-.12.33-.1A1.35,1.35,0,0,0,65.17,56c.37.5.75.85,1.19.18.67,1.15.65-.42,1.23-.12,0,0,.16.29.26.54s.13.47.19.7l.69-.31a.93.93,0,0,0,.18-.13,23.22,23.22,0,0,1,2,4.8,4,4,0,0,0-.85,2.66c-.32.22-.61.44-.92.63-1,.62-1.05.76-.74,1.48a15,15,0,0,0-2.47.5,1.81,1.81,0,0,1-1.68-.1,2.5,2.5,0,0,0-.76-.13l1.39-2-.11-.12L61.34,65.9l.28-.57c-.22-.23-.6-.47-.57-.63.14-.85-.65-1.15-1-1.73-.13-.24-.62-.28-.84-.37l-1.56,2.65H57v.85l-.37-.33c-.33.56-.71.75-1.29.38-.33-.21-.72-.21-1-.66s-1.68-.34-2,.16a1,1,0,0,0,0,.8c.34.51.79,1,1.15,1.45a1.25,1.25,0,0,1,.09.56c-.16,0-.4,0-.47-.16a2.36,2.36,0,0,0-1.61-1c-.88-.22-1.71-.64-2.6-.8-1.07-.19-1.19,0-.81,1.07a2.19,2.19,0,0,1,.05.41,3.15,3.15,0,0,0-.71-.38,9.71,9.71,0,0,0-1.08-.17l-.12.94-.95.08a3.55,3.55,0,0,1,.24.72.71.71,0,0,1-.15.45c-.84-.08-.8.63-1,1.12-.71-.52-.64-.78.33-1.42-.06-.57-.42-.68-.92-.59-1.23.23-2.46.4-3.68.68a1.64,1.64,0,0,0-1.07.69,1.3,1.3,0,0,0,.39,1.13c.52.47.78,1,.44,1.56a8.68,8.68,0,0,1-1.55,1.47L38,74l.55-1.46-.67.38-.87-2-.33,0a5.3,5.3,0,0,0-.24,1.54,5.59,5.59,0,0,0,.68,1.62c.23.46.57.86.78,1.32.06.13-.21.58-.31.57a10.56,10.56,0,0,1-1.55-.27c.68-.52.28-1,.15-1.53a13.82,13.82,0,0,1-.39-2.3,5,5,0,0,0-1.15-3.34c-.24-.26-.37-.63-.74-.89l.32,2-.28,0-.15-.94c-.09-.54-.19-1-1-.64-.26.1-.78-.17-1.07-.41a14.49,14.49,0,0,1-1.33-1.38l-.26.16v3.56l-.25,0a7.21,7.21,0,0,1-.16-1.72c.14-1-.62-1.46-1-2.09-.21-.31-.95-.27-1.45-.38,0,0-.05,0-.06,0-.35-.08-.74-.31-1-.22s-.54.5-.8.78l-.27-.14a2.89,2.89,0,0,1,.18-.73c.51-.9.36-1.4-.73-1.86a8.2,8.2,0,0,1,0,1,6.93,6.93,0,0,1-.26,1,.75.75,0,0,0,.47,1c1.36.63,1.36.64.69,2ZM29.1,33.68l.74,1.74L29,35.37c0,.89-.29,1.8.67,2.36a1,1,0,0,0,.08,1.63l1.1-.93-1.18-1.68.19-.13.54.67a3.22,3.22,0,0,1,.21-.52c.15-.24.33-.46.51-.7.15.23.34.44.47.68s.33.72.56,1.25a3.17,3.17,0,0,0-.78-3.72l-.56,1-.21,0C30.53,34.41,30.68,33.42,29.1,33.68ZM26,35.4a3.77,3.77,0,0,0,1,2.47.56.56,0,0,0,.48-.2A1.74,1.74,0,0,0,26,35.4Zm-2.91,4.22.43.2c.22-.25.62-.51.61-.74s-.41-.52-.63-.78Zm19.34-2.76.35-1.3-.35-.08c-.11.37-.21.75-.3,1.13C42.08,36.62,42.12,36.64,42.39,36.86ZM37.1,69.46l.72,1.08C38.1,69.86,38.12,69.36,37.1,69.46Z"/><path class="cls-3" d="M29.27,73.13c.94,1.06.39,2.88,2,3.65l.22-1,.87,6.37.23,0c.34-1.23.12-2.73,1.47-3.46l.33.13a10.67,10.67,0,0,1-.47,1.38A1.9,1.9,0,0,0,34.46,82c.63.36.95,0,1.21-.55.73-1.38,1.44-2.78,2.19-4.15.26-.48.5-1.07,1.3-.86,0,.15,0,.34,0,.4-.88.74-.81,1.92-1.28,2.83-.68,1.31-1.5,2.54-2.28,3.8a.77.77,0,0,1-.47.31c-.64.15-.77.54-.68,1.16a.8.8,0,0,1-.31.71.92.92,0,0,1-.76-.17c-.48-.33-1.25-.36-1.3-1.16,0-.35,0-.69-.08-1-.11-1.07-.19-2.14-.39-3.19,0-.25-.47-.55-.77-.63-.85-.22-1.28-.92-.8-1.63a1.6,1.6,0,0,0,.15-1.53c-.25-.86-.52-1.72-.76-2.57A6.37,6.37,0,0,1,29.27,73.13Z"/><path class="cls-4" d="M3,64.17A2,2,0,0,1,.46,65.46c-.49-.13-.6-.44-.27-.84A2.37,2.37,0,0,1,3,64.17Z"/><path class="cls-5" d="M16,45.52c-1.15.78-2-.24-3-.3.29-.88.78-1.27,1.7-1C15.37,44.47,16,44.67,16,45.52Z"/><path class="cls-6" d="M26.09,71.05a3.67,3.67,0,0,1,1.08,2.76c.06.77.29,1.53.35,2.3a3.22,3.22,0,0,1-.23,1.25c-.06.15-.37.22-.57.28s-.25-.24-.23-.25a4.78,4.78,0,0,1,.44-.46c.06-.05.13-.08.35-.22L26.11,71Z"/><path class="cls-7" d="M65.07,28.38c1.52-1.69,2.64-3.71,4.39-5.21l.29.22c-.7.87-1.38,1.76-2.12,2.6s-1.6,1.7-2.4,2.55Z"/><path class="cls-8" d="M41.77,74.77c-.54,1-1.06,2-1.63,3-.08.15-.39.16-.59.23a1.78,1.78,0,0,1,0-.66,17.32,17.32,0,0,1,1.1-2,4.94,4.94,0,0,1,.85-.79Z"/><path class="cls-9" d="M9.54,83.49c.36-1,1.83-2.45,2.45-2.43A3.49,3.49,0,0,1,9.54,83.49Z"/><path class="cls-10" d="M49,79c0,.71,0,1.43,0,2.14,0,.1-.34.29-.44.25A.94.94,0,0,1,48,81c-.31-.8.15-1.38.62-1.94Z"/><path class="cls-11" d="M19,78.13c.36,1,0,1.51-1.1,1.78A1.44,1.44,0,0,1,19,78.13Z"/><path class="cls-12" d="M39.15,82.61c-.2-1.22.11-2,.85-2.25A1.86,1.86,0,0,1,39.15,82.61Z"/><path class="cls-13" d="M16.8,73.7a1.47,1.47,0,0,1-1,1.66c-.11,0-.37-.3-.34-.35C15.72,74.43,15.88,73.71,16.8,73.7Z"/><path class="cls-14" d="M42.9,80.05,45,76.86C44.93,78.13,43.62,80,42.9,80.05Z"/><path class="cls-15" d="M7.52,32.5,11,35C9.52,34.66,8.57,33.51,7.52,32.5Z"/><path class="cls-16" d="M55.51,34.62l-1.8,3.05a7.91,7.91,0,0,1,1.55-3.22Z"/><path class="cls-17" d="M29,88.59l-.31-3.79.28,0c.1,1.26.2,2.52.28,3.78C29.29,88.56,29,88.59,29,88.59Z"/><path class="cls-18" d="M59.47,40.48,57.21,43l-.16-.15a27.67,27.67,0,0,1,2.27-2.56Z"/><path class="cls-19" d="M31.89,29.26l-.38-1.58.26-.07a1.33,1.33,0,0,1,.44,1.56Z"/><path class="cls-20" d="M1.52,54.09c.23.39.49.64.44.77a1,1,0,0,1-.6.49c-.13,0-.51-.34-.48-.42A3.86,3.86,0,0,1,1.52,54.09Z"/><path class="cls-21" d="M42.41,82.71l1.18-1.8a1.72,1.72,0,0,1-1,2Z"/><path class="cls-22" d="M37.46,27.73l-.76-3.08.27,0a7.38,7.38,0,0,1,.49,3.13Z"/><path class="cls-23" d="M49.68,40.49l-.24,1.2-.27.08c-.11-.2-.37-.44-.32-.6a3.5,3.5,0,0,1,.53-.88Z"/><path class="cls-24" d="M48.46,69.7,50.35,69C50.38,69.64,50,69.84,48.46,69.7Z"/><path class="cls-25" d="M53.45,78.78c-.24-.39-.49-.6-.46-.78s.31-.32.49-.48c.15.17.4.33.42.51S53.69,78.41,53.45,78.78Z"/><path class="cls-26" d="M8.63,53.4l-.58-.61c.22-.13.44-.37.64-.36s.38.29.56.45Z"/><path class="cls-27" d="M77.26,52.07l1.87-.42.05.23a2.46,2.46,0,0,1-1.85.48Z"/><path class="cls-28" d="M49.75,77.89,50,79.76l-.28,0-.26-1.88Z"/><path class="cls-29" d="M52.73,42.56l.48-1.89C53.58,41.29,53.53,41.5,52.73,42.56Z"/><path class="cls-30" d="M10.56,40.59l1.14.79-.25.33-1.1-.89Z"/><path class="cls-31" d="M42.87,70.8c-.39.19-.6.37-.76.34s-.28-.3-.41-.46c.15-.11.31-.31.46-.3S42.51,70.57,42.87,70.8Z"/><path class="cls-32" d="M24,35.49l-.47-1.19.16-.12a7.19,7.19,0,0,1,.8.76A5.63,5.63,0,0,1,24,35.49Z"/><path class="cls-33" d="M30.58,25.94l-.42,2.76h-.11l.31-2.78Z"/><path class="cls-34" d="M53.25,69.39l-1.81-.86.14-.27,1.78.92Z"/><path class="cls-35" d="M26.11,71c-.19-.74-.38-1.48-.56-2.22h0a2.41,2.41,0,0,1,.57,2.22Z"/><path class="cls-36" d="M37.1,69.46c1-.1,1,.4.72,1.08Z"/></g></g></svg>