<svg xmlns="http://www.w3.org/2000/svg" xmlns:xlink="http://www.w3.org/1999/xlink" viewBox="0 0 114.15 60.08"><defs><style>.cls-1{fill:url(#radial-gradient);}.cls-2{fill:url(#radial-gradient-2);}.cls-3{fill:url(#radial-gradient-3);}.cls-4{fill:url(#radial-gradient-4);}.cls-5{fill:url(#radial-gradient-5);}.cls-6{fill:url(#radial-gradient-6);}.cls-7{fill:url(#radial-gradient-7);}.cls-8{fill:url(#radial-gradient-8);}.cls-9{fill:url(#radial-gradient-9);}.cls-10{fill:url(#radial-gradient-10);}.cls-11{fill:url(#radial-gradient-11);}.cls-12{fill:url(#radial-gradient-12);}.cls-13{fill:url(#radial-gradient-13);}.cls-14{fill:url(#radial-gradient-14);}.cls-15{fill:url(#radial-gradient-15);}.cls-16{fill:url(#radial-gradient-16);}.cls-17{fill:url(#radial-gradient-17);}.cls-18{fill:url(#radial-gradient-18);}.cls-19{fill:url(#radial-gradient-19);}.cls-20{fill:url(#radial-gradient-20);}.cls-21{fill:url(#radial-gradient-21);}.cls-22{fill:url(#radial-gradient-22);}.cls-23{fill:url(#radial-gradient-23);}</style><radialGradient id="radial-gradient" cx="60.41" cy="30.04" r="38.94" gradientUnits="userSpaceOnUse"><stop offset="0" stop-color="#ff3b3b"/><stop offset="1" stop-color="#a80000"/></radialGradient><radialGradient id="radial-gradient-2" cx="16.57" cy="44.2" r="0.88" xlink:href="#radial-gradient"/><radialGradient id="radial-gradient-3" cx="62.69" cy="47.76" r="0.93" xlink:href="#radial-gradient"/><radialGradient id="radial-gradient-4" cx="97.84" cy="23.76" r="0.83" xlink:href="#radial-gradient"/><radialGradient id="radial-gradient-5" cx="16.23" cy="53.53" r="0.73" xlink:href="#radial-gradient"/><radialGradient id="radial-gradient-6" cx="25.7" cy="24.77" r="0.71" xlink:href="#radial-gradient"/><radialGradient id="radial-gradient-7" cx="31.2" cy="19.38" r="0.66" xlink:href="#radial-gradient"/><radialGradient id="radial-gradient-8" cx="87.15" cy="47.73" r="0.57" xlink:href="#radial-gradient"/><radialGradient id="radial-gradient-9" cx="40.33" cy="15.42" r="0.53" xlink:href="#radial-gradient"/><radialGradient id="radial-gradient-10" cx="89.7" cy="24.08" r="0.57" xlink:href="#radial-gradient"/><radialGradient id="radial-gradient-11" cx="0.5" cy="39.06" r="0.39" xlink:href="#radial-gradient"/><radialGradient id="radial-gradient-12" cx="18.6" cy="44.35" r="0.53" xlink:href="#radial-gradient"/><radialGradient id="radial-gradient-13" cx="113.61" cy="29.74" r="0.44" xlink:href="#radial-gradient"/><radialGradient id="radial-gradient-14" cx="95.95" cy="23.52" r="0.5" xlink:href="#radial-gradient"/><radialGradient id="radial-gradient-15" cx="78.42" cy="56.55" r="0.48" xlink:href="#radial-gradient"/><radialGradient id="radial-gradient-16" cx="78.75" cy="16.5" r="0.46" xlink:href="#radial-gradient"/><radialGradient id="radial-gradient-17" cx="104.79" cy="37.57" r="0.34" xlink:href="#radial-gradient"/><radialGradient id="radial-gradient-18" cx="73.01" cy="13.79" r="3.01" xlink:href="#radial-gradient"/><radialGradient id="radial-gradient-19" cx="62.38" cy="45.53" r="1.41" xlink:href="#radial-gradient"/><radialGradient id="radial-gradient-20" cx="40" cy="44.81" r="0.95" xlink:href="#radial-gradient"/><radialGradient id="radial-gradient-21" cx="65.34" cy="46.07" r="1.36" xlink:href="#radial-gradient"/><radialGradient id="radial-gradient-22" cx="70.88" cy="18.05" r="0.87" xlink:href="#radial-gradient"/><radialGradient id="radial-gradient-23" cx="36.83" cy="43.74" r="0.85" xlink:href="#radial-gradient"/></defs><g id="Layer_2" data-name="Layer 2"><g id="Layer_1-2" data-name="Layer 1"><path class="cls-1" d="M86.53,48,88.87,51c-.79.44-1.55.37-1.87-.41-.8-2-2.48-2.83-4.14-3.83a44.7,44.7,0,0,1-4-2.84c-.37-.28-.6-.35-1-.09a2.23,2.23,0,0,1-.76.19l-.23-1,1.68.37.26-1.63-.23-.07-.39.46c-.54.64-1.4.65-1.51-.09-.16-1.16-1-1.6-1.68-2.19a14,14,0,0,0-2.65-1.74l.3,1.36a2.83,2.83,0,0,0-.37,4.31c.7.74,1.48,1.4,2.21,2.1l.74-.62c.09.11.27.27.24.31a5.38,5.38,0,0,1-.56.71c.89,1.1,1.82,2.29,2.8,3.44.15.18.5.19.75.28a3.8,3.8,0,0,1,1.1.41c.22.19.44.69.34.89a1.31,1.31,0,0,1-.9.54,3.08,3.08,0,0,1-1.19-.16c-.65-.18-.72-.44-.44-1.09a.7.7,0,0,0-.15-.62c-.9-.85-1.89-1.6-2.75-2.49a6.55,6.55,0,0,0-3.24-2c-1.81-.38-3.23-1.51-4.9-2.1a1,1,0,0,0-.78,0c-.33.18-.09.39.07.61s-.1.36-.17.59c1.38.86,3.36.3,4.57,1.94H68.27L72,48.85l-.12.22L71,48.76l.34.79c-1.05-.44-1.94-.76-2.77-1.17S67,47.48,66.16,47c-.26-.15-.53-.49-.84-.06s-.4.82,0,1.15a5.1,5.1,0,0,0,1.27.76c.87.37,1.77.69,2.65,1a.56.56,0,0,1,.32.43L66.24,49l-.07.13,3.75,2.46-.14.21c-1.2-.36-2.06-1.36-3.21-2l-.29,1h-.09a1.15,1.15,0,0,1,0-.37c.14-.57.15-1-.5-1.34-.47-.22-.84-.59-1.44-.41a2,2,0,0,1-1.85-.47c.51.14,1,.27,1.47-.26-.33-.29-.61-.73-1-.79a3.35,3.35,0,0,0-1.37.31.89.89,0,0,0,.11.49c.11.13.34.16.51.23l-1.93-.31,1.67,4.27A3.78,3.78,0,0,1,60.06,50c-.37-1-.53-1.07-1.57-.9-.13,0-.42-.13-.43-.23-.14-.82-.71-.91-1.37-.88l-.22,0c-1.06.05-1.14,0-1.15-1.06a2.91,2.91,0,0,0,0-.39l-1,.09a6.54,6.54,0,0,1,.57,1.24,1.37,1.37,0,0,1-.14,1,.5.5,0,0,1-.84-.07c0-.07-.34,0-.52.07l-1.17.19c.34,1.8-1,2.85-2.18,4.11h1.46c-.49.93-.51.87-1.51,1.28-.61.25-1.21.52-1.34,1.39A22.63,22.63,0,0,1,47.68,59a1.9,1.9,0,0,1-2.4.94c-.42-.23-.37-.56-.07-.8a3.17,3.17,0,0,0,1.07-2,9.61,9.61,0,0,1,1.87-3.65c.5-.65,1-1.33,1.59-2.2a22,22,0,0,1-2.4-.08,21.62,21.62,0,0,1-2.25-.51l1-.15-.16-.11c.18-.32.31-.86.55-.92.6-.14.91.35,1.08,1l1.79-.29c-1.28-1.17.24-1.64.53-2.6l-1,.53.06-.71-1.62-.35c.37-.34.94-.65.21-1.23-.11-.09.16-.66.22-.89-.68-.33-1.31-.7-2-.95a1.64,1.64,0,0,0-1.09,0,12.94,12.94,0,0,0-4.63,3.81l-.63.72c-1.23,1.49-2.52,3-2.92,4.91a27.61,27.61,0,0,0-.36,4.17,2.06,2.06,0,0,1-2.53,2.14c-.68-.09-.89-.42-.47-1a6.19,6.19,0,0,0,.91-3.15,18.52,18.52,0,0,1,1.08-3.36,20.41,20.41,0,0,1,1.05-2.09c-1-.31-1.08-.57-.47-1.37a2.18,2.18,0,0,1,.85-.72,1.36,1.36,0,0,0,.88-1.71c0-.3-.11-.61-.17-1a3.8,3.8,0,0,1-2.78-.16l.77-.55-.19-.07a6.25,6.25,0,0,1,.67-1.77,2,2,0,0,0-.17-3,3,3,0,0,1-.38-.51,7.29,7.29,0,0,1-1.63.29A2.82,2.82,0,0,1,32.3,39a10.12,10.12,0,0,0-4.45,2.54,39.55,39.55,0,0,0-2.76,3.28c-.68.85-1.28,1.78-2,2.58a4.81,4.81,0,0,1-2.94,1.48c-.82.12-1.13-.29-.81-1a3.62,3.62,0,0,1,1.94-2c.5-.21,1-.4,1.51-.63s.73-.43.28-.91c.14-.08.24-.1.3-.17l2-2.67a2.49,2.49,0,0,1,.43-.53c1.07-.78,2.15-1.54,3.22-2.3l-.1-.2c-.36.14-.74.25-1.09.41-.56.27-1.08.61-1.65.85a18.21,18.21,0,0,1-1.92.68A7,7,0,0,0,21,42.57a3.11,3.11,0,0,1-3.09,1,3.94,3.94,0,0,1-.84-.39,5.4,5.4,0,0,1,.58-.49C19.86,41.47,22,40.19,24.25,39a9.76,9.76,0,0,1,2.56-.79,4.92,4.92,0,0,0,2.33-1.56,5.91,5.91,0,0,1,1-.84.56.56,0,0,0,.17-1,15.19,15.19,0,0,0-1.54-1.46,9.55,9.55,0,0,0-1.05-.71l1.45-.26c0-.08,0-.16,0-.17a36.64,36.64,0,0,0-3.83-2c-.47-.18-1.19.26-1.79.4a8.5,8.5,0,0,1-1.62.34c-1.08,0-2.17-.06-3.26,0-.89,0-1.82.24-2.56-.49a3.15,3.15,0,0,1-.44-.76c.25-.14.49-.3.75-.42a.89.89,0,0,1,.42-.07,6.72,6.72,0,0,0,4-.86,3.19,3.19,0,0,1,1.25-.19c1.1-.07,1.45.45.94,1.47a11.63,11.63,0,0,0,5.05-.59l0-.3L14.31,24.73l-.05-.24a7.11,7.11,0,0,1,1.18-.32,1.66,1.66,0,0,1,.81.25,9.28,9.28,0,0,0,5.05.87,24.29,24.29,0,0,1,5,.49c.26,0,.5.32.71.53s.51.59.91,1.05a3.34,3.34,0,0,1,0-.57c.06-.23.11-.63.23-.65a1.61,1.61,0,0,1,.94.09c.56.24,1.09.57,1.64.86l.14-.18-.09-.51c.82.31,1.5.91,2.45.63.17-.05.41.19.63.24a4.38,4.38,0,0,0,.61.1c-.49-.93-.95-1.92-1.54-2.82a2.42,2.42,0,0,0-1.19-.93c-1.26-.4-2.56-.69-3.92-1l.1.71c-.16,0-.36.1-.4,0a2.52,2.52,0,0,1-.28-.57l.14-.13c-1.42-.46-2.83-.95-4.26-1.37a3.16,3.16,0,0,0-1,.1,6,6,0,0,1-1.4.06.52.52,0,0,1-.21-1A3.33,3.33,0,0,1,21.85,20c.19,0,.44.3.65.48s.31.43.5.46c2.41.39,4.82.8,7.24,1.11a12.92,12.92,0,0,0,5.6-.84,18.38,18.38,0,0,0,2.59-1,2.87,2.87,0,0,0,1.1-1.06c.33-.55,0-.89-.62-1a1.89,1.89,0,0,1-1.1-.54,1.11,1.11,0,0,1-.12-1,.66.66,0,0,1,1-.23,11.62,11.62,0,0,1,1.47,1.42,8.85,8.85,0,0,1,.73,1.08c.53-.33,1.27-.4,1-1.3h.69l-.16-.93,1.71.74a1.85,1.85,0,0,0-.5-2.28,1,1,0,0,0-1.65.25c-.09.12-.32.15-.48.23a1.32,1.32,0,0,1,.07-.5c.46-.74.31-1.17-.57-1.48-.44-.16-.87-.35-.77-.94s.53-.68,1-.7.84,0,1.37,0c-.2-.76-.77-1.15-1.15-1.68-.63-.87-1.31-.12-2.05-.49l4.93-1.67,0,.08L42.2,9.91c1.39.11,1.21,1.1,1.42,2l2.23-.55c0,.45,0,.78.65.92s.52,1.67-.11,2.23a4.78,4.78,0,0,1-.83.55A1.23,1.23,0,0,0,45,16.77c.18.53.3,1.07.48,1.72.24-.32.52-.65.75-1,.58-.93.83-1,1.77-.46.19.1.36.28.56.31.73.13,1.34.34,1.44,1.24,0,.15.39.34.62.38.63.09,1.27.11,2,.17a4.13,4.13,0,0,0-.16-.47c-.25-.54-.12-.87.5-1a2.09,2.09,0,0,0,.54-.16c.34-.15.49-.37.21-.72a10.13,10.13,0,0,1-.81-1.05,1.72,1.72,0,0,1-.34-.95c0-.15.54-.24.87-.37l-2.88-3.74.19-.2A8.18,8.18,0,0,1,52.5,12c.93,1.33,2.46,1.29,3.73,1.82.27.11.69-.07,1-.18a.83.83,0,0,1,1.19.62c.24.75.31.75,1.1.23a10.7,10.7,0,0,1-.79-.87c-.29-.36-.71-.83-.16-1.22s.85.17,1.12.54.57.9.86,1.36A1.1,1.1,0,0,0,61.19,13a4.23,4.23,0,0,0-.34-1.23,3,3,0,0,1,.2-3.11,9.71,9.71,0,0,0,1-6.62c-.19-1.25.25-1.88,1.46-2,.58-.07.91.19.71.71A11.62,11.62,0,0,0,64,4.09a16.4,16.4,0,0,1-.73,3A23.76,23.76,0,0,0,62.38,10a3.82,3.82,0,0,0,.27,2.2,1.9,1.9,0,0,1-.11,2.05,1,1,0,0,0,.06,1.43c.36-.85.68-1.64,1-2.41A2,2,0,0,1,65,12c.29-.08.54-.42.82-.43a3.13,3.13,0,0,1,1,.27c-.26.36-.38.65-.61.79a1.92,1.92,0,0,1-1,.31.88.88,0,0,0-1,.68c-.74,1.83-.68,1.66.9,3.15l.29-.49c.63.43,1.66-.36,2,.75l.77-.46-.16-1.34s.11-.05.13,0c.77.93.84.93,1.78.12a9.89,9.89,0,0,0,2.74-3.86,5.33,5.33,0,0,1,2.83-3.23A5.77,5.77,0,0,1,76.9,8c-.05.48-.08,1-.14,1.43s-.17.75-.19,1.14c0,.65,0,1.31,0,2a2.81,2.81,0,0,1,2.85-.25l-.86.6c-.61.45-1.23.89-1.83,1.35-.39.31-.44.66,0,1a2.29,2.29,0,0,1,.94,1.44,1.43,1.43,0,0,0,.83.76c1.8.7,1.81.68.69,2.29a1.38,1.38,0,0,0-.12.33l1.36.31c.11-.61.17-1.13.31-1.62a1.65,1.65,0,0,1,1.31-1.35c.52-.11.83.1.75.62a5.68,5.68,0,0,1-.4,1.27c-.19.48-.42.94-.64,1.41l.15.19a3.36,3.36,0,0,0,1.18-.4,11.89,11.89,0,0,0,2.13-2.06A7.7,7.7,0,0,1,89,15.63a26.57,26.57,0,0,0,3.18-1.25c1.34-.68,2.8-1.12,3.87-2.32a41.35,41.35,0,0,1,3.33-3,3.43,3.43,0,0,1,3.72-.65,1,1,0,0,1,.62.72,1,1,0,0,1-.63.69,7.82,7.82,0,0,0-3.42,2.09c-.83.73-1.78,1.34-2.59,1.94l.69.73c-.18.16-.4.49-.55.46a7.23,7.23,0,0,1-1.19-.51v.29c-.08,0-.13.09-.16.08-.6-.27-1.08.06-1.59.28-1.08.49-2.16,1-3.26,1.43a10.21,10.21,0,0,0-4.66,3.95,3.42,3.42,0,0,1-1.7,1.33,14.87,14.87,0,0,0-2,.85,4.18,4.18,0,0,0-.84.84l.18.2c1-.46,1.9-1,2.89-1.37s1.93-.6,2.89-.9l.15.28a7,7,0,0,1-1.08.82c-.84.43-1.74.77-2.58,1.2a1.44,1.44,0,0,0-.67.75c-.24.71-.35,1.46-.52,2.19,2.55.45,2.54,1,2.1,2,1.72,0,3.37.08,5,0a25.68,25.68,0,0,0,8.1-2.13,12.65,12.65,0,0,1,5.88-1.2,7.26,7.26,0,0,1,1.73.34c.72.24.8.73.13,1.08a12.58,12.58,0,0,1-2.83,1.07,5.51,5.51,0,0,1-2-.05,4.74,4.74,0,0,0-3.13.62A21.69,21.69,0,0,1,95,29.64c-2,.77-4.17.6-6.26.87a1.26,1.26,0,0,0-.69.26,6,6,0,0,0,.84.18c.59.05,1.19,0,1.78.08,2,.15,4,.36,6,.42a26,26,0,0,0,2.59-.36,18.45,18.45,0,0,1,2.88,0,1.86,1.86,0,0,1,.94.58.87.87,0,0,1,.21.69c0,.11-.39.21-.61.22-2.46.05-4.93.11-7.39.12-1.21,0-2.43,0-3.63-.15-.55-.06-1.06-.39-1.6-.49A6,6,0,0,0,88.15,32c-.93.11-1.85.38-2.78.58a2.09,2.09,0,0,1-.56.05c-.87-.09-1.28.1-1.32.95a25.39,25.39,0,0,0,.25,3.14l-1.69-.61c.13.46.18.78.3,1.07.35.83.72,1.65,1.09,2.47s1.47,1.31,3,1a4,4,0,0,1-.74-.24,2.29,2.29,0,0,1-.65-.55c-.07-.08.1-.47.13-.47a4.29,4.29,0,0,1,.86.2c.08,0,.15.11.22.18C89,42.36,88,42,91.57,43.44a3,3,0,0,1,.56.29,1.3,1.3,0,0,1,.36,1.61c-.34.6-.86.47-1.37.29a3.08,3.08,0,0,1-.52-.24,7.93,7.93,0,0,0-4.11-1.22,4.48,4.48,0,0,1-1.57-.39c-.31-.15-.73-.6-.69-.84s.51-.57.81-.84c.06-.05.17,0,.53-.12L85,41.67a12.15,12.15,0,0,0-4.32-1.79A2.13,2.13,0,0,0,80,40a2.31,2.31,0,0,0,.28.68c.51.6,1,1.18,1.6,1.72.17.15.49.12.58.26a5.58,5.58,0,0,0,.47,1c.7.91,1.42,1.79,2.17,2.65a4.6,4.6,0,0,0,.72.56l.75,1.13ZM75.73,10.52a2.3,2.3,0,0,0-1.83,1.91,6.34,6.34,0,0,1-1.45,2.46,19.44,19.44,0,0,1-2.16,2l.13.19a5.55,5.55,0,0,0,1.26-.78,4.09,4.09,0,0,1,2.16-1.23,1.5,1.5,0,0,0,.93-.85C75.15,13,75.41,11.81,75.73,10.52ZM64,44.35c-.82-.25-1.13.29-1.52.69-.68.72-.76.72-1.48,0a1.28,1.28,0,0,0-.11.8,5.74,5.74,0,0,0,.55,1A8.46,8.46,0,0,0,64,44.35ZM39.44,46a9.22,9.22,0,0,0,1-1.09,1.84,1.84,0,0,0,.24-.91c0-.11-.3-.35-.42-.33-.49.09-1,.25-.93.92C39.36,45.06,39.41,45.56,39.44,46Zm24.12-.54a12.42,12.42,0,0,0,.92,1,2.47,2.47,0,0,0,.66.27l.23-.37-.84-.49a5.3,5.3,0,0,1,1.3.49c.39.18.8.35,1.2.52l.08-.21C66,46.16,65.06,45,63.56,45.43Zm8.13-28.31-1.61,1.79C71.16,19.18,71.7,18.56,71.69,17.12ZM37,42.89,36,44.4l.2.19,1.49-1.33Z"/><path class="cls-2" d="M16.5,44.93c-.4-.29-.95-.52-.94-.72,0-.59.58-.74,1.1-.74s1,0,.91.59C17.51,44.38,16.93,44.6,16.5,44.93Z"/><path class="cls-3" d="M62.14,48.21c-.17-.07-.4-.1-.51-.23a.89.89,0,0,1-.11-.49,3.35,3.35,0,0,1,1.37-.31c.35.06.63.5,1,.79-.46.53-1,.4-1.47.26Z"/><path class="cls-4" d="M97.82,23c.4.29.9.48.93.73.07.48-.38.72-.86.71s-1-.14-1-.68C96.93,23.55,97.44,23.34,97.82,23Z"/><path class="cls-5" d="M16.22,54.14l-.82-.61c.3-.21.58-.54.91-.6s.51.31.76.49Z"/><path class="cls-6" d="M25.83,25.44,25,24.63c.24-.18.46-.47.73-.51s.82.07.76.58C26.41,24.92,26.11,25.11,25.83,25.44Z"/><path class="cls-7" d="M31.19,18.74l.69.76c-.21.19-.46.55-.62.51s-.5-.37-.74-.57Z"/><path class="cls-8" d="M86.55,48.07c.06-.28,0-.65.2-.79s.55-.06.75.07.19.43.28.65a2.36,2.36,0,0,1-.67.24,1.67,1.67,0,0,1-.58-.2Z"/><path class="cls-9" d="M40.42,16l-.6-.73c.2-.13.39-.34.6-.36s.43.24.42.37S40.63,15.64,40.42,16Z"/><path class="cls-10" d="M90.39,24.18c-.43.18-.66.36-.8.31S89.2,24.16,89,24c.18-.11.37-.33.53-.31A3.29,3.29,0,0,1,90.39,24.18Z"/><path class="cls-11" d="M0,38.83c.32,0,.64,0,1,0a3.13,3.13,0,0,1,0,.48H0Z"/><path class="cls-12" d="M19.3,44.43c-.36.06-.72.15-1.08.18-.09,0-.21-.17-.31-.26.11-.1.23-.27.34-.27a8.48,8.48,0,0,1,1,.15Z"/><path class="cls-13" d="M114.15,29.53c-.36.62-.69.63-1,.35-.08-.07,0-.3-.05-.46Z"/><path class="cls-14" d="M95.29,23.38a7.4,7.4,0,0,1,1-.12c.1,0,.2.2.3.31-.13.07-.27.22-.39.21a6.71,6.71,0,0,1-.89-.19Z"/><path class="cls-15" d="M79,56.65c-.36.13-.55.28-.69.24s-.31-.27-.47-.41c.16-.1.33-.29.47-.27S78.66,56.42,79,56.65Z"/><path class="cls-16" d="M79.32,16.54c-.33.15-.49.29-.63.27s-.33-.19-.5-.29c.15-.12.3-.33.45-.34S79,16.35,79.32,16.54Z"/><path class="cls-17" d="M105.16,37.82c-.26,0-.52-.09-.78-.16a1.88,1.88,0,0,1,.05-.33c.26,0,.51.05.77.08Z"/><path class="cls-18" d="M75.73,10.52c-.32,1.29-.58,2.51-1,3.69a1.5,1.5,0,0,1-.93.85,4.09,4.09,0,0,0-2.16,1.23,5.55,5.55,0,0,1-1.26.78l-.13-.19a19.44,19.44,0,0,0,2.16-2,6.34,6.34,0,0,0,1.45-2.46A2.3,2.3,0,0,1,75.73,10.52Z"/><path class="cls-19" d="M64,44.35a8.46,8.46,0,0,1-2.56,2.41,5.74,5.74,0,0,1-.55-1A1.28,1.28,0,0,1,61,45c.72.77.8.77,1.48,0C62.82,44.64,63.13,44.1,64,44.35Z"/><path class="cls-20" d="M39.44,46c0-.41-.08-.91-.11-1.41-.06-.67.44-.83.93-.92.12,0,.42.22.42.33a1.84,1.84,0,0,1-.24.91A9.22,9.22,0,0,1,39.44,46Z"/><path class="cls-21" d="M63.56,45.43c1.5-.43,2.4.73,3.55,1.16L67,46.8c-.4-.17-.81-.34-1.2-.52a5.3,5.3,0,0,0-1.3-.49l.84.49-.23.37a2.47,2.47,0,0,1-.66-.27A12.42,12.42,0,0,1,63.56,45.43Z"/><path class="cls-22" d="M71.69,17.12c0,1.44-.53,2.06-1.61,1.79Z"/><path class="cls-23" d="M37,42.89l.72.37-1.49,1.33L36,44.4Z"/></g></g></svg>