<svg xmlns="http://www.w3.org/2000/svg" xmlns:xlink="http://www.w3.org/1999/xlink" viewBox="0 0 29.3 69.99"><defs><style>.cls-1{isolation:isolate;}.cls-2{fill:url(#radial-gradient);}.cls-3{fill:#fff;mix-blend-mode:overlay;}</style><radialGradient id="radial-gradient" cx="14.65" cy="34.99" r="26.49" gradientUnits="userSpaceOnUse"><stop offset="0" stop-color="#4a4a4a"/><stop offset="1" stop-color="#1f1f1f"/></radialGradient></defs><g class="cls-1"><g id="Layer_2" data-name="Layer 2"><g id="Layer_1-2" data-name="Layer 1"><path class="cls-2" d="M9.65,69.62a.35.35,0,0,1-.35-.26c-.1-.31-2.24-7.46-2.37-12.52-1.36,1.31-4.66,4.7-5.85,7.83a.37.37,0,0,1-.34.23H.68a.38.38,0,0,1-.31-.35c0-.09-.31-9.72,5.37-28.73,2.18-7.28,5-15,8.29-23.09C17.46,4.41,20.32.36,22.75.36a2.5,2.5,0,0,1,1.77.82c4.42,4.42,4.42,26.71,4.42,27.66a.37.37,0,0,1-.05.18,98.67,98.67,0,0,0-5.83,12.91v0c-3.54,9.53-5.2,18.14-4.94,25.61a.37.37,0,0,1-.23.34.32.32,0,0,1-.14,0,.36.36,0,0,1-.26-.11,27.36,27.36,0,0,1-5.21-7.89A34,34,0,0,0,10,69.28a.36.36,0,0,1-.32.34Z"/><path d="M22.75.73c5.88,0,5.82,28.11,5.82,28.11a99.33,99.33,0,0,0-5.85,13h0c-2.72,7.3-5.29,16.74-5,25.76,0,0-4-4.18-5.45-8.68,0,0-2.41,5.68-2.64,10.37,0,0-2.48-8.2-2.35-13.26,0,0-5,4.44-6.56,8.54,0,0-.38-9.45,5.35-28.62,2-6.54,4.64-14.22,8.28-23.05S20.73.73,22.75.73m0-.73h0c-2.63,0-5.51,4-9.06,12.59C10.37,20.66,7.57,28.44,5.4,35.71-.31,54.78,0,64.18,0,64.57a.73.73,0,0,0,.61.69H.74a.74.74,0,0,0,.68-.47c1-2.69,3.65-5.58,5.18-7.13A63.37,63.37,0,0,0,9,69.47a.73.73,0,0,0,.7.52h.09a.73.73,0,0,0,.64-.69,32.11,32.11,0,0,1,1.91-8.37,29.15,29.15,0,0,0,4.93,7.16.74.74,0,0,0,.52.22.73.73,0,0,0,.73-.76c-.26-7.41,1.4-16,4.92-25.45v0h0A98.27,98.27,0,0,1,29.21,29.2a.74.74,0,0,0,.09-.36c0-.95,0-23.39-4.52-27.92a2.84,2.84,0,0,0-2-.92Z"/><path class="cls-3" d="M17.74,67.57s-4-4.18-5.45-8.68c0,0-2.41,5.68-2.64,10.37,0,0-2.48-8.2-2.35-13.26,0,0-5,4.44-6.56,8.54,0,0-.38-9.45,5.35-28.62L7.18,37.1a135.36,135.36,0,0,0-5,21.09l5.83-4L9.28,64.38a76.58,76.58,0,0,1,3.17-7.59,53.5,53.5,0,0,0,4.41,8.27,54.75,54.75,0,0,1,5.86-23.25C20,49.11,17.43,58.55,17.74,67.57Z"/></g></g></g></svg>