<svg xmlns="http://www.w3.org/2000/svg" xmlns:xlink="http://www.w3.org/1999/xlink" viewBox="0 0 165.99 67.07"><defs><style>.cls-1{isolation:isolate;}.cls-2{fill:url(#radial-gradient);}.cls-3{fill:url(#radial-gradient-2);}.cls-4{fill:url(#radial-gradient-3);}.cls-5{fill:url(#radial-gradient-4);}.cls-6{fill:url(#radial-gradient-5);}.cls-7{fill:url(#radial-gradient-6);}.cls-8{fill:url(#radial-gradient-7);}.cls-9{fill:url(#radial-gradient-8);}.cls-10{fill:url(#radial-gradient-9);}.cls-11{fill:url(#radial-gradient-10);}.cls-12{fill:url(#radial-gradient-11);}.cls-13{fill:url(#radial-gradient-12);}.cls-14{fill:url(#radial-gradient-13);}.cls-15{fill:url(#radial-gradient-14);}.cls-16{fill:url(#radial-gradient-15);}.cls-17{fill:url(#radial-gradient-16);}.cls-18{fill:url(#radial-gradient-17);}.cls-19{fill:url(#radial-gradient-18);}.cls-20{fill:url(#radial-gradient-19);}.cls-21{fill:url(#radial-gradient-20);}.cls-22{fill:url(#radial-gradient-21);}.cls-23{fill:url(#radial-gradient-22);}.cls-24{fill:url(#radial-gradient-23);}.cls-25{fill:url(#radial-gradient-24);}.cls-26{opacity:0.45;}.cls-27,.cls-39{fill:#fff;}.cls-27,.cls-33,.cls-35,.cls-38,.cls-42,.cls-44{mix-blend-mode:overlay;}.cls-28{fill:#ceccb8;}.cls-29{fill:#8c8a6a;}.cls-30{fill:#deddcc;mix-blend-mode:multiply;}.cls-31{fill:#8f2d2e;}.cls-32{fill:url(#radial-gradient-25);}.cls-33{fill:url(#linear-gradient);}.cls-34{fill:url(#radial-gradient-26);}.cls-35{fill:url(#radial-gradient-27);}.cls-36{fill:#212121;}.cls-37{fill:url(#radial-gradient-28);}.cls-40{fill:url(#radial-gradient-29);}.cls-41{fill:url(#radial-gradient-30);}.cls-42{fill:url(#linear-gradient-2);}.cls-43{fill:url(#radial-gradient-31);}.cls-44{fill:url(#radial-gradient-32);}.cls-45{fill:url(#radial-gradient-33);}.cls-46{fill:url(#radial-gradient-34);}.cls-47{fill:url(#radial-gradient-35);}.cls-48{fill:url(#radial-gradient-36);}.cls-49{fill:url(#radial-gradient-37);}.cls-50{fill:url(#radial-gradient-38);}.cls-51{fill:url(#radial-gradient-39);}</style><radialGradient id="radial-gradient" cx="77.68" cy="36.97" r="36.54" gradientUnits="userSpaceOnUse"><stop offset="0" stop-color="#ff3b3b"/><stop offset="1" stop-color="#a80000"/></radialGradient><radialGradient id="radial-gradient-2" cx="36.54" cy="50.25" r="0.83" xlink:href="#radial-gradient"/><radialGradient id="radial-gradient-3" cx="79.82" cy="53.6" r="0.87" xlink:href="#radial-gradient"/><radialGradient id="radial-gradient-4" cx="112.81" cy="31.07" r="0.78" xlink:href="#radial-gradient"/><radialGradient id="radial-gradient-5" cx="36.22" cy="59.01" r="0.69" xlink:href="#radial-gradient"/><radialGradient id="radial-gradient-6" cx="45.1" cy="32.02" r="0.66" xlink:href="#radial-gradient"/><radialGradient id="radial-gradient-7" cx="50.27" cy="26.96" r="0.62" xlink:href="#radial-gradient"/><radialGradient id="radial-gradient-8" cx="102.78" cy="53.57" r="0.54" xlink:href="#radial-gradient"/><radialGradient id="radial-gradient-9" cx="58.84" cy="23.25" r="0.5" xlink:href="#radial-gradient"/><radialGradient id="radial-gradient-10" cx="105.17" cy="31.38" r="0.53" xlink:href="#radial-gradient"/><radialGradient id="radial-gradient-11" cx="21.46" cy="45.43" r="0.37" xlink:href="#radial-gradient"/><radialGradient id="radial-gradient-12" cx="38.45" cy="50.39" r="0.49" xlink:href="#radial-gradient"/><radialGradient id="radial-gradient-13" cx="127.61" cy="36.68" r="0.42" xlink:href="#radial-gradient"/><radialGradient id="radial-gradient-14" cx="111.04" cy="30.85" r="0.47" xlink:href="#radial-gradient"/><radialGradient id="radial-gradient-15" cx="94.58" cy="61.85" r="0.45" xlink:href="#radial-gradient"/><radialGradient id="radial-gradient-16" cx="94.9" cy="24.26" r="0.43" xlink:href="#radial-gradient"/><radialGradient id="radial-gradient-17" cx="119.33" cy="44.04" r="0.32" xlink:href="#radial-gradient"/><radialGradient id="radial-gradient-18" cx="89.51" cy="21.72" r="2.83" xlink:href="#radial-gradient"/><radialGradient id="radial-gradient-19" cx="79.53" cy="51.5" r="1.33" xlink:href="#radial-gradient"/><radialGradient id="radial-gradient-20" cx="58.53" cy="50.82" r="0.9" xlink:href="#radial-gradient"/><radialGradient id="radial-gradient-21" cx="82.3" cy="52.01" r="1.27" xlink:href="#radial-gradient"/><radialGradient id="radial-gradient-22" cx="87.51" cy="25.71" r="0.81" xlink:href="#radial-gradient"/><radialGradient id="radial-gradient-23" cx="55.55" cy="49.82" r="0.8" xlink:href="#radial-gradient"/><radialGradient id="radial-gradient-24" cx="-1059.2" cy="17.28" r="10.79" gradientTransform="matrix(-1, 0, 0, 1, -1019.05, 0)" gradientUnits="userSpaceOnUse"><stop offset="0" stop-color="#4a4a4a"/><stop offset="1" stop-color="#2d2d2d"/></radialGradient><radialGradient id="radial-gradient-25" cx="-2538.63" cy="53.25" r="16.25" gradientTransform="matrix(-1, 0, 0, 1, -2519.63, 0)" xlink:href="#radial-gradient-24"/><linearGradient id="linear-gradient" x1="-2537.4" y1="45.66" x2="-2537.48" y2="55.2" gradientTransform="matrix(-1, 0, 0, 1, -2519.63, 0)" gradientUnits="userSpaceOnUse"><stop offset="0" stop-color="#fff" stop-opacity="0"/><stop offset="1" stop-color="#fff"/></linearGradient><radialGradient id="radial-gradient-26" cx="-2534.74" cy="14.78" r="35.4" gradientTransform="matrix(-1, 0, 0, 1, -2519.63, 0)" xlink:href="#radial-gradient-24"/><radialGradient id="radial-gradient-27" cx="-2531.27" cy="9.73" r="16.73" gradientTransform="matrix(-1, 0, 0, 1, -2519.63, 0)" gradientUnits="userSpaceOnUse"><stop offset="0.13" stop-color="#fff"/><stop offset="1" stop-color="#fff" stop-opacity="0"/></radialGradient><radialGradient id="radial-gradient-28" cx="-2538.06" cy="31.76" r="5.36" gradientTransform="matrix(-1, 0, 0, 1, -2519.63, 0)" gradientUnits="userSpaceOnUse"><stop offset="0" stop-color="#ff0017"/><stop offset="1" stop-color="#cf0013"/></radialGradient><radialGradient id="radial-gradient-29" cx="907.5" cy="17.28" r="10.79" gradientTransform="translate(-781.67)" xlink:href="#radial-gradient-24"/><radialGradient id="radial-gradient-30" cx="-571.93" cy="53.25" r="16.25" gradientTransform="translate(718.91)" xlink:href="#radial-gradient-24"/><linearGradient id="linear-gradient-2" x1="-570.7" y1="45.66" x2="-570.77" y2="55.2" gradientTransform="translate(718.91)" xlink:href="#linear-gradient"/><radialGradient id="radial-gradient-31" cx="-568.04" cy="14.78" r="35.4" gradientTransform="translate(718.91)" xlink:href="#radial-gradient-24"/><radialGradient id="radial-gradient-32" cx="-564.57" cy="9.73" r="16.73" gradientTransform="translate(718.91)" xlink:href="#radial-gradient-27"/><radialGradient id="radial-gradient-33" cx="-571.36" cy="31.76" r="5.36" gradientTransform="translate(718.91)" xlink:href="#radial-gradient-28"/><radialGradient id="radial-gradient-34" cx="10.5" cy="15.37" r="5.64" gradientTransform="matrix(1, 0, 0, 1, 0, 0)" xlink:href="#radial-gradient-28"/><radialGradient id="radial-gradient-35" cx="11.66" cy="17.5" r="6.28" gradientTransform="matrix(1, 0, 0, 1, 0, 0)" xlink:href="#radial-gradient-28"/><radialGradient id="radial-gradient-36" cx="13.6" cy="18.75" r="6.09" gradientTransform="matrix(1, 0, 0, 1, 0, 0)" xlink:href="#radial-gradient-28"/><radialGradient id="radial-gradient-37" cx="155.49" cy="15.37" r="5.64" gradientTransform="matrix(1, 0, 0, 1, 0, 0)" xlink:href="#radial-gradient-28"/><radialGradient id="radial-gradient-38" cx="154.32" cy="17.5" r="6.28" gradientTransform="matrix(1, 0, 0, 1, 0, 0)" xlink:href="#radial-gradient-28"/><radialGradient id="radial-gradient-39" cx="152.38" cy="18.75" r="6.09" gradientTransform="matrix(1, 0, 0, 1, 0, 0)" xlink:href="#radial-gradient-28"/></defs><g class="cls-1"><g id="Layer_2" data-name="Layer 2"><g id="Layer_1-2" data-name="Layer 1"><path class="cls-2" d="M102.19,53.86l2.21,2.76c-.75.41-1.46.34-1.76-.38-.76-1.83-2.33-2.66-3.89-3.6A42.56,42.56,0,0,1,95,50c-.35-.27-.57-.33-.93-.09a2,2,0,0,1-.72.18l-.21-.93,1.57.35L95,48l-.22-.06-.36.44c-.51.59-1.32.6-1.42-.09-.15-1.09-.92-1.5-1.57-2.06a13.92,13.92,0,0,0-2.49-1.63l.28,1.28a2.64,2.64,0,0,0-.34,4c.65.69,1.38,1.32,2.07,2l.69-.58c.08.1.25.25.23.29a5.22,5.22,0,0,1-.53.66c.84,1,1.71,2.15,2.63,3.24.14.16.46.18.7.26a3.6,3.6,0,0,1,1,.38c.21.18.41.65.32.84a1.27,1.27,0,0,1-.84.51A2.88,2.88,0,0,1,94,57.28c-.62-.17-.68-.41-.42-1a.69.69,0,0,0-.14-.58c-.85-.79-1.78-1.5-2.58-2.34a6.16,6.16,0,0,0-3-1.87c-1.7-.35-3-1.41-4.6-2a1,1,0,0,0-.73,0c-.32.17-.09.37.06.57s-.09.35-.16.56c1.3.81,3.16.28,4.29,1.82H85.06l3.47,2.14-.11.21-.77-.29.32.74c-1-.41-1.82-.72-2.61-1.1s-1.51-.85-2.28-1.26c-.25-.14-.49-.46-.79-.06s-.38.77,0,1.09a5.28,5.28,0,0,0,1.19.71c.82.35,1.66.64,2.49,1a.57.57,0,0,1,.3.4l-3.1-1.31-.07.13,3.51,2.31-.12.19c-1.13-.34-1.94-1.28-3-1.84l-.26,1h-.1a1.38,1.38,0,0,1,0-.35c.13-.53.14-1-.47-1.26-.44-.2-.79-.55-1.35-.38A1.9,1.9,0,0,1,79.53,54c.48.13,1,.25,1.38-.25-.31-.27-.57-.69-.9-.74a3.2,3.2,0,0,0-1.28.29.79.79,0,0,0,.1.47c.1.12.31.14.48.21l-1.82-.29,1.57,4a3.53,3.53,0,0,1-1.7-2c-.36-.93-.5-1-1.48-.85a.52.52,0,0,1-.41-.21c-.13-.77-.66-.85-1.28-.83l-.2,0c-1,0-1.08,0-1.09-1,0-.09,0-.17,0-.36l-1,.09a6.36,6.36,0,0,1,.53,1.16,1.28,1.28,0,0,1-.14.91.46.46,0,0,1-.78-.06c0-.06-.32,0-.49.07l-1.1.18c.32,1.69-.94,2.67-2,3.86h1.38c-.47.86-.49.81-1.42,1.19-.57.23-1.14.49-1.26,1.31a21.71,21.71,0,0,1-.84,2.93,1.79,1.79,0,0,1-2.25.88c-.39-.22-.35-.53-.06-.75a3,3,0,0,0,1-1.84A9,9,0,0,1,66.17,59c.47-.62.91-1.26,1.5-2.07a22,22,0,0,1-2.26-.08c-.68-.08-1.35-.3-2.11-.47l.92-.14-.15-.11c.17-.3.29-.81.52-.86.57-.13.85.33,1,.91l1.68-.28c-1.21-1.09.22-1.53.49-2.44l-.9.5.05-.66L65.41,53c.35-.32.89-.61.21-1.16-.11-.08.14-.62.2-.83-.64-.32-1.23-.65-1.85-.89a1.44,1.44,0,0,0-1,0,12,12,0,0,0-4.35,3.58c-.19.22-.39.44-.58.67a11,11,0,0,0-2.75,4.61,25.47,25.47,0,0,0-.33,3.91,1.94,1.94,0,0,1-2.38,2c-.64-.09-.83-.4-.44-.89A5.9,5.9,0,0,0,53,61a17.77,17.77,0,0,1,1-3.15,18.94,18.94,0,0,1,1-2c-.93-.3-1-.54-.44-1.29a2.06,2.06,0,0,1,.8-.67,1.28,1.28,0,0,0,.82-1.61c0-.28-.1-.57-.16-.9a3.55,3.55,0,0,1-2.61-.15l.73-.51-.18-.07A5.78,5.78,0,0,1,54.56,49a1.87,1.87,0,0,0-.16-2.86,3.37,3.37,0,0,1-.36-.49,6.33,6.33,0,0,1-1.53.27,2.42,2.42,0,0,1-1.2-.59,9.46,9.46,0,0,0-4.18,2.39,33.22,33.22,0,0,0-2.59,3.08c-.65.79-1.2,1.67-1.89,2.42a4.56,4.56,0,0,1-2.76,1.39c-.77.11-1.06-.27-.76-1A3.34,3.34,0,0,1,41,51.78c.47-.2.95-.38,1.41-.6s.69-.4.27-.85c.13-.07.23-.09.28-.16.64-.83,1.27-1.67,1.9-2.51a2.83,2.83,0,0,1,.4-.5c1-.73,2-1.44,3-2.15l-.09-.18a9.81,9.81,0,0,0-1,.38c-.52.25-1,.57-1.54.8a16.86,16.86,0,0,1-1.81.63,6.57,6.57,0,0,0-3,2.09,3,3,0,0,1-2.91,1,3.87,3.87,0,0,1-.78-.38,4.66,4.66,0,0,1,.54-.45c2-1.17,4.09-2.36,6.18-3.46a9.3,9.3,0,0,1,2.4-.74,4.57,4.57,0,0,0,2.18-1.46,5.59,5.59,0,0,1,1-.79.53.53,0,0,0,.16-.89A14.32,14.32,0,0,0,48,40.15a9.43,9.43,0,0,0-1-.67l1.36-.24c0-.08,0-.15,0-.16a34,34,0,0,0-3.59-1.87c-.45-.17-1.12.25-1.68.38a8.2,8.2,0,0,1-1.52.31c-1,0-2,0-3.06,0-.84,0-1.71.23-2.4-.45a3.17,3.17,0,0,1-.42-.72c.24-.13.47-.27.71-.39a.89.89,0,0,1,.39-.06,6.47,6.47,0,0,0,3.8-.81,2.94,2.94,0,0,1,1.17-.18c1-.06,1.36.42.88,1.37a10.92,10.92,0,0,0,4.73-.54l0-.29L34.42,32l-.05-.23a5.53,5.53,0,0,1,1.11-.3,1.59,1.59,0,0,1,.76.23,8.73,8.73,0,0,0,4.74.82,23.37,23.37,0,0,1,4.69.46c.24,0,.47.3.66.49s.49.56.86,1a2.9,2.9,0,0,1,0-.53c.06-.22.1-.59.21-.62a1.56,1.56,0,0,1,.88.09c.54.23,1,.53,1.55.8L50,34l-.08-.48c.76.29,1.41.85,2.3.59.16,0,.38.18.58.23s.48.07.58.09c-.47-.87-.9-1.8-1.45-2.65A2.18,2.18,0,0,0,50.77,31c-1.18-.39-2.4-.65-3.68-1l.1.66c-.15,0-.34.09-.38,0a2.37,2.37,0,0,1-.26-.53l.13-.13c-1.33-.43-2.65-.89-4-1.28a2.8,2.8,0,0,0-1,.09,5.81,5.81,0,0,1-1.31.06.5.5,0,0,1-.2-.94,3.25,3.25,0,0,1,1.29-.44c.18,0,.42.29.62.46s.29.4.46.43c2.26.37,4.53.75,6.8,1a12.1,12.1,0,0,0,5.25-.79,16.89,16.89,0,0,0,2.43-.92,2.58,2.58,0,0,0,1-1c.31-.51,0-.84-.58-.94a1.89,1.89,0,0,1-1-.5,1.07,1.07,0,0,1-.11-.94.62.62,0,0,1,1-.21,11.55,11.55,0,0,1,1.38,1.33,8.47,8.47,0,0,1,.68,1c.49-.3,1.2-.37,1-1.22H61l-.15-.87,1.61.69A1.73,1.73,0,0,0,62,22.94c-.63-.49-1.07-.41-1.55.24-.09.11-.29.14-.45.22a1.24,1.24,0,0,1,.07-.48c.43-.69.29-1.09-.53-1.39-.42-.15-.83-.32-.73-.87s.5-.65,1-.66.8,0,1.29,0A4.76,4.76,0,0,0,60,18.42c-.59-.82-1.22-.11-1.92-.46l4.62-1.57,0,.08-2.11,1.61c1.31.1,1.14,1,1.34,1.83L64,19.39c0,.43,0,.74.61.87s.49,1.57-.09,2.1a5.81,5.81,0,0,1-.78.51,1.16,1.16,0,0,0-.54,1.65c.17.49.29,1,.45,1.61.22-.3.49-.61.7-1,.55-.87.78-.94,1.67-.43a1.68,1.68,0,0,0,.52.29c.68.12,1.26.31,1.36,1.16,0,.14.36.32.58.36.59.09,1.19.1,1.85.16-.07-.2-.1-.33-.15-.44-.24-.51-.12-.82.46-.91a1.84,1.84,0,0,0,.51-.14c.31-.14.46-.35.2-.67a10.53,10.53,0,0,1-.76-1,1.56,1.56,0,0,1-.32-.89c0-.13.5-.22.82-.34l-2.71-3.51.18-.19A8,8,0,0,1,70.26,20c.88,1.25,2.3,1.22,3.5,1.71.25.11.65-.06,1-.16a.78.78,0,0,1,1.12.58c.22.7.29.7,1,.22-.26-.28-.53-.53-.75-.82s-.66-.78-.15-1.14.8.15,1.06.5.53.85.8,1.27A1,1,0,0,0,78.41,21a3.78,3.78,0,0,0-.32-1.15,2.86,2.86,0,0,1,.19-2.92,9.12,9.12,0,0,0,1-6.21c-.18-1.17.23-1.76,1.37-1.9.55-.07.86.17.67.66A10.91,10.91,0,0,0,81,12.61a14.46,14.46,0,0,1-.68,2.78,23.13,23.13,0,0,0-.79,2.75,3.74,3.74,0,0,0,.25,2.07,1.76,1.76,0,0,1-.1,1.91.94.94,0,0,0,.06,1.35c.33-.8.63-1.53,1-2.26A1.82,1.82,0,0,1,81.94,20c.28-.08.51-.4.77-.41a3,3,0,0,1,1,.26c-.25.33-.36.61-.57.74a1.81,1.81,0,0,1-.92.29.84.84,0,0,0-.91.64c-.68,1.72-.63,1.56.85,3L82.4,24c.6.39,1.56-.34,1.92.7l.72-.43-.15-1.26S85,23,85,23c.72.88.79.87,1.67.11a9.28,9.28,0,0,0,2.57-3.62,5,5,0,0,1,2.66-3,5.63,5.63,0,0,1,1.25-.19c0,.45-.08.9-.14,1.34s-.15.71-.17,1.07c0,.61,0,1.23,0,1.91a2.64,2.64,0,0,1,2.67-.24l-.8.57c-.58.42-1.16.83-1.72,1.27-.36.29-.42.61,0,.92a2.19,2.19,0,0,1,.89,1.35c.06.29.46.59.77.71,1.7.66,1.71.64.66,2.15a1.47,1.47,0,0,0-.12.31l1.28.3c.1-.58.16-1.06.29-1.53A1.57,1.57,0,0,1,98,25.16c.49-.1.78.09.7.58a5.2,5.2,0,0,1-.37,1.2c-.18.44-.4.88-.6,1.31l.13.19A3.29,3.29,0,0,0,99,28.06a11.44,11.44,0,0,0,2-1.93,7.24,7.24,0,0,1,3.56-2.69,25.74,25.74,0,0,0,3-1.17c1.25-.64,2.62-1.05,3.63-2.18a38.18,38.18,0,0,1,3.13-2.81,3.18,3.18,0,0,1,3.48-.61,1,1,0,0,1,.59.67,1,1,0,0,1-.6.65,7.47,7.47,0,0,0-3.21,2c-.78.69-1.66,1.26-2.42,1.82l.64.69c-.17.15-.38.46-.51.43a6.09,6.09,0,0,1-1.12-.48v.27c-.07,0-.13.09-.15.08-.56-.25-1,0-1.49.26-1,.46-2,.92-3.06,1.34a9.66,9.66,0,0,0-4.38,3.71,3.25,3.25,0,0,1-1.59,1.25,13.07,13.07,0,0,0-1.84.79,3.9,3.9,0,0,0-.78.79l.16.19c.9-.43,1.78-.92,2.71-1.29s1.81-.56,2.72-.84l.13.27a6.67,6.67,0,0,1-1,.76c-.79.41-1.63.72-2.42,1.13a1.38,1.38,0,0,0-.63.7c-.22.67-.33,1.37-.49,2.06,2.4.42,2.39.93,2,1.87,1.61,0,3.16.07,4.7,0a24.08,24.08,0,0,0,7.59-2,11.84,11.84,0,0,1,5.52-1.12,6.91,6.91,0,0,1,1.63.31c.67.23.75.69.12,1a11.84,11.84,0,0,1-2.66,1,5.24,5.24,0,0,1-1.89,0,4.37,4.37,0,0,0-2.94.58,21.45,21.45,0,0,1-2.9,1.11c-1.89.72-3.91.57-5.87.81a1.26,1.26,0,0,0-.65.25,5.29,5.29,0,0,0,.79.17c.55,0,1.11,0,1.67.08,1.86.13,3.72.33,5.58.39a22.53,22.53,0,0,0,2.43-.34,17.52,17.52,0,0,1,2.71,0,1.68,1.68,0,0,1,.88.55.83.83,0,0,1,.2.64c0,.1-.37.2-.58.21-2.31,0-4.62.1-6.93.11-1.14,0-2.28,0-3.41-.14-.51,0-1-.37-1.5-.46a5.57,5.57,0,0,0-1.77-.12c-.88.1-1.74.36-2.61.54a1.84,1.84,0,0,1-.52,0c-.82-.08-1.21.09-1.25.89a22.56,22.56,0,0,0,.24,3L98,42.63a6.57,6.57,0,0,0,.28,1c.32.78.67,1.55,1,2.31s1.38,1.24,2.77.9a5,5,0,0,1-.7-.22,2.34,2.34,0,0,1-.61-.52c-.06-.08.09-.45.12-.44a4.71,4.71,0,0,1,.81.18.79.79,0,0,1,.2.17c2.65,2.51,1.69,2.14,5,3.52a2.07,2.07,0,0,1,.53.28,1.21,1.21,0,0,1,.34,1.5c-.32.57-.8.45-1.29.28a2.12,2.12,0,0,1-.48-.23,7.43,7.43,0,0,0-3.86-1.14,4.36,4.36,0,0,1-1.47-.37c-.3-.14-.69-.56-.65-.79s.48-.53.75-.78c.06-.06.17,0,.5-.12l-.51-.29a11.53,11.53,0,0,0-4-1.68,2.15,2.15,0,0,0-.68.13,2.52,2.52,0,0,0,.26.65,20.71,20.71,0,0,0,1.51,1.6c.15.14.46.12.54.25a4.36,4.36,0,0,0,.44,1c.65.85,1.34,1.68,2,2.49a4.24,4.24,0,0,0,.67.53l.7,1.05ZM92.06,18.64a2.16,2.16,0,0,0-1.72,1.8A5.94,5.94,0,0,1,89,22.75a19.06,19.06,0,0,1-2,1.87l.13.18a5.51,5.51,0,0,0,1.17-.73,3.85,3.85,0,0,1,2-1.16,1.38,1.38,0,0,0,.87-.8C91.52,21,91.76,19.86,92.06,18.64ZM81,50.4c-.78-.23-1.07.27-1.43.65-.64.67-.71.67-1.39,0a1.12,1.12,0,0,0-.1.75,5.46,5.46,0,0,0,.52.91A8,8,0,0,0,81,50.4ZM58,51.92a9.87,9.87,0,0,0,.94-1,1.69,1.69,0,0,0,.22-.86c0-.11-.27-.33-.39-.31-.46.09-.92.23-.88.86C57.93,51.06,58,51.53,58,51.92Zm22.64-.51c.37.38.59.67.86.89a2.69,2.69,0,0,0,.62.26l.22-.35-.8-.47a5.93,5.93,0,0,1,1.23.46c.37.18.75.33,1.13.5l.07-.21C82.89,52.1,82,51,80.64,51.41Zm7.62-26.57-1.5,1.68C87.77,26.77,88.28,26.2,88.26,24.84ZM55.66,49l-.9,1.43.18.17,1.4-1.25Z"/><path class="cls-3" d="M36.47,50.94c-.37-.27-.89-.48-.88-.67,0-.56.55-.7,1-.7s1,0,.86.55C37.42,50.42,36.88,50.63,36.47,50.94Z"/><path class="cls-4" d="M79.31,54c-.17-.07-.38-.09-.48-.21a.79.79,0,0,1-.1-.47A3.2,3.2,0,0,1,80,53.05c.33.05.59.47.9.74-.43.5-.9.38-1.38.25Z"/><path class="cls-5" d="M112.79,30.39c.37.28.84.46.88.69.06.46-.36.68-.81.67s-.94-.13-.91-.64C112,30.88,112.44,30.68,112.79,30.39Z"/><path class="cls-6" d="M36.21,59.58,35.44,59c.28-.2.54-.51.85-.56s.48.29.72.46Z"/><path class="cls-7" d="M45.23,32.65l-.83-.76c.23-.17.44-.44.69-.48s.76.07.71.55C45.78,32.16,45.49,32.34,45.23,32.65Z"/><path class="cls-8" d="M50.26,26.36l.65.72c-.2.17-.43.51-.58.48s-.47-.35-.7-.54Z"/><path class="cls-9" d="M102.21,53.88c.06-.25,0-.6.19-.74a.77.77,0,0,1,.71.08c.15.09.18.39.26.61a2.63,2.63,0,0,1-.63.22,1.51,1.51,0,0,1-.55-.19Z"/><path class="cls-10" d="M58.92,23.77l-.56-.69c.19-.12.36-.32.56-.34s.4.23.4.34S59.12,23.45,58.92,23.77Z"/><path class="cls-11" d="M105.81,31.47c-.39.16-.61.34-.75.29s-.36-.31-.54-.48c.17-.1.35-.31.5-.29S105.43,31.23,105.81,31.47Z"/><path class="cls-12" d="M21,45.22c.3,0,.6,0,.9,0,0,0,0,.29,0,.44H21Z"/><path class="cls-13" d="M39.1,50.47a8.87,8.87,0,0,1-1,.17c-.09,0-.2-.16-.3-.25.11-.08.22-.25.32-.25.32,0,.64.09,1,.14Z"/><path class="cls-14" d="M128.12,36.48c-.34.59-.65.6-1,.34-.08-.07,0-.29,0-.44Z"/><path class="cls-15" d="M110.42,30.71a7.84,7.84,0,0,1,1-.11c.09,0,.19.19.28.29-.12.07-.25.21-.36.2a6,6,0,0,1-.84-.17Z"/><path class="cls-16" d="M95.13,61.94c-.34.12-.52.27-.65.22s-.29-.25-.44-.38c.15-.09.31-.27.44-.25S94.81,61.72,95.13,61.94Z"/><path class="cls-17" d="M95.43,24.29c-.31.15-.46.28-.59.26a1.25,1.25,0,0,1-.47-.27c.14-.12.28-.31.43-.32S95.11,24.12,95.43,24.29Z"/><path class="cls-18" d="M119.68,44.27c-.24-.05-.49-.09-.73-.15a1.65,1.65,0,0,1,0-.31c.25,0,.49,0,.73.07Z"/><path class="cls-19" d="M92.06,18.64c-.3,1.22-.54,2.36-.9,3.47a1.38,1.38,0,0,1-.87.8,3.85,3.85,0,0,0-2,1.16,5.51,5.51,0,0,1-1.17.73L87,24.62a19.06,19.06,0,0,0,2-1.87,5.94,5.94,0,0,0,1.36-2.31A2.16,2.16,0,0,1,92.06,18.64Z"/><path class="cls-20" d="M81,50.4a8,8,0,0,1-2.4,2.26,5.46,5.46,0,0,1-.52-.91,1.12,1.12,0,0,1,.1-.75c.68.72.75.72,1.39,0C79.94,50.67,80.23,50.17,81,50.4Z"/><path class="cls-21" d="M58,51.92c0-.39-.07-.86-.11-1.33,0-.63.42-.77.88-.86.12,0,.4.2.39.31a1.69,1.69,0,0,1-.22.86A9.87,9.87,0,0,1,58,51.92Z"/><path class="cls-22" d="M80.64,51.41C82,51,82.89,52.1,84,52.49l-.07.21c-.38-.17-.76-.32-1.13-.5a5.93,5.93,0,0,0-1.23-.46l.8.47-.22.35a2.69,2.69,0,0,1-.62-.26C81.23,52.08,81,51.79,80.64,51.41Z"/><path class="cls-23" d="M88.26,24.84c0,1.36-.49,1.93-1.5,1.68Z"/><path class="cls-24" d="M55.66,49l.68.35-1.4,1.25-.18-.17Z"/><path class="cls-25" d="M44.36,29.22a9.77,9.77,0,0,1-3-.49,13.85,13.85,0,0,1-4-2.13C32,22.48,30.6,12.44,30.65,7.7c0-2,.26-2.14.39-2.24a.75.75,0,0,1,.43-.12,2.82,2.82,0,0,1,1.22.42,21.4,21.4,0,0,1,2.65,1.81l.09.1c1.7,2.94,6.92,7,10.79,9s3.43,10.2,3.42,10.55a.37.37,0,0,1-.12.26,8.1,8.1,0,0,1-5.16,1.76Z"/><path d="M31.47,5.7a2.75,2.75,0,0,1,1.05.38,21.67,21.67,0,0,1,2.59,1.77C37,11.06,42.47,15.09,46.05,17s3.23,10.22,3.23,10.22a7.8,7.8,0,0,1-4.92,1.66,9.11,9.11,0,0,1-2.85-.47,13.24,13.24,0,0,1-3.86-2.07c-6.86-5.17-7-20.08-6.39-20.55a.33.33,0,0,1,.21-.06m0-.73a1.08,1.08,0,0,0-.64.2c-.29.21-.53.54-.55,2.53,0,4.8,1.35,15,6.93,19.19a14.24,14.24,0,0,0,4.07,2.19,10.12,10.12,0,0,0,3.08.5,8.49,8.49,0,0,0,5.4-1.85.69.69,0,0,0,.24-.51c0-.36.33-8.82-3.61-10.9s-9-6-10.65-8.83a.68.68,0,0,0-.17-.21,21.93,21.93,0,0,0-2.7-1.84A3.12,3.12,0,0,0,31.47,5Z"/><path class="cls-26" d="M46.81,27s-4.05-3.05-5.52-7.1-2.4-7-4.16-8A26.8,26.8,0,0,1,34,9.63s.58,5.11.64,8,2.91,9,6.93,10S46.81,27,46.81,27Z"/><path class="cls-27" d="M37.65,26.31a13.24,13.24,0,0,0,3.86,2.07,24.26,24.26,0,0,1-7.73-10.12A22.36,22.36,0,0,1,32.55,6.11l0,0c-.56-.3-1.05-.47-1.26-.32C30.61,6.23,30.79,21.14,37.65,26.31Z"/><path class="cls-28" d="M47.63,28.08a.36.36,0,0,1-.36-.4c.21-2.05.12-4.05-.19-4.27a6.18,6.18,0,0,0-.61-.17c-1-.24-2.65-.65-2.75-2.67a.35.35,0,0,1,.21-.35.4.4,0,0,1,.15,0,.35.35,0,0,1,.26.1,1.53,1.53,0,0,0,.95.42.52.52,0,0,0,.43-.41c.14-.5-.18-1.09-.88-1.58-.21-.15-.56-.35-1-.61a30.39,30.39,0,0,1-7.47-5.61A16.06,16.06,0,0,1,31.77.72a.37.37,0,0,1,.31-.35h.06a.37.37,0,0,1,.34.23,23.53,23.53,0,0,0,5.65,8,9.09,9.09,0,0,1,.2-4.94.37.37,0,0,1,.34-.23h.06a.37.37,0,0,1,.31.35,9.07,9.07,0,0,0,2.48,5.09l1,1.08a17.9,17.9,0,0,1,3.31,4.26c.54-1,1.67-2.62,3.54-2.62l.34,0a.35.35,0,0,1,.26.15.39.39,0,0,1,.06.3c-.12.72-.58,4.1.4,6.44,1.13,2.66,1.57,8,1.5,9.25a.36.36,0,0,1-.36.34Z"/><path class="cls-29" d="M32.14.73a23.39,23.39,0,0,0,6.65,8.9,9.64,9.64,0,0,1-.12-5.85,9.33,9.33,0,0,0,2.58,5.33c2.47,2.69,4,4.16,4.54,6.07,0,0,1.09-3.23,3.58-3.23h.3a.36.36,0,0,0,0,.1c-.1.63-.59,4.13.44,6.57,1.13,2.69,1.52,8,1.47,9.09H47.63s.44-4.29-.41-4.64-3-.33-3.14-2.53a1.93,1.93,0,0,0,1.21.53h.06c.7,0,1.42-1.45-.3-2.66-1-.69-5.1-2.57-8.43-6.17h0A15.73,15.73,0,0,1,32.14.73m0-.73H32a.73.73,0,0,0-.61.7,16.35,16.35,0,0,0,4.64,12l.05.06a31,31,0,0,0,7.54,5.66c.45.25.8.46,1,.59.5.35.77.74.75,1.07a.34.34,0,0,1-.11.27A1.19,1.19,0,0,1,44.6,20a.78.78,0,0,0-.52-.21.66.66,0,0,0-.3.07.74.74,0,0,0-.43.7c.12,2.29,2,2.75,3,3l.45.12a12.22,12.22,0,0,1,.07,3.93.71.71,0,0,0,.18.57.75.75,0,0,0,.54.24h3.94a.74.74,0,0,0,.73-.69c.05-1-.3-6.52-1.53-9.42-1-2.29-.45-5.78-.39-6.17v-.06a.79.79,0,0,0-.14-.58.77.77,0,0,0-.51-.3h-.37a4.27,4.27,0,0,0-3.52,2.22,22.87,22.87,0,0,0-3.06-3.75c-.31-.33-.65-.69-1-1.08A8.57,8.57,0,0,1,39.4,3.75a.73.73,0,0,0-.61-.69h-.12a.73.73,0,0,0-.68.48,8.62,8.62,0,0,0-.4,4.05A23.57,23.57,0,0,1,32.82.47.72.72,0,0,0,32.14,0Z"/><path class="cls-30" d="M45.35,21.08a1.91,1.91,0,0,1-1.27-.53c.12,2.2,2.29,2.17,3.14,2.53s.41,4.64.41,4.64h1.51a12.42,12.42,0,0,0,.15-2.41C49.18,20.08,47.63,17,40.41,13S32.14.73,32.14.73c-.4,11.51,11.19,16.48,12.91,17.69S46.05,21.05,45.35,21.08Z"/><path class="cls-27" d="M36.61,12.24c-.21-.29-3.52-5-3.72-8.58,0,0,2.89,5.21,6.52,6.78A18.05,18.05,0,0,1,39,7.11c.19-.08.89,2.27,2.34,3.48S45,13.4,45.84,16.74c0,0,1.26-4,3.45-4.46a.74.74,0,0,0,.37-.22.36.36,0,0,1,0-.1c-2.7-.27-3.88,3.22-3.88,3.22-.5-1.91-2.07-3.38-4.54-6.07a9.33,9.33,0,0,1-2.58-5.33,9.64,9.64,0,0,0,.12,5.85A23.39,23.39,0,0,1,32.14.73,15.73,15.73,0,0,0,36.61,12.24Z"/><path class="cls-28" d="M52.15,28.19l-2.06-.35a.37.37,0,0,1-.3-.39,40.52,40.52,0,0,0,.11-5.84,10.46,10.46,0,0,1-1.43-3.26,11.38,11.38,0,0,1,1.44-8.91.34.34,0,0,1,.31-.17h.05a.37.37,0,0,1,.3.26,74.5,74.5,0,0,1,1.88,8.59c.06.45.1.89.13,1.29.23,3.62,0,8.39,0,8.44a.42.42,0,0,1-.14.27.38.38,0,0,1-.23.08Z"/><path class="cls-29" d="M50.22,9.63a70.68,70.68,0,0,1,1.86,8.54c.06.44.11.87.13,1.26.24,3.65,0,8.4,0,8.4l-.46-.08-1.59-.27s.35-5.64.06-6.05a10,10,0,0,1-1.4-3.17,11,11,0,0,1,1.4-8.63m0-.73a.74.74,0,0,0-.63.35,11.74,11.74,0,0,0-1.47,9.19,11.19,11.19,0,0,0,1.44,3.33,50.56,50.56,0,0,1-.13,5.66.73.73,0,0,0,.6.77l1.59.27.47.08h.12a.7.7,0,0,0,.46-.16.73.73,0,0,0,.27-.53c0-.2.24-4.84,0-8.48,0-.41-.07-.85-.13-1.31a70.71,70.71,0,0,0-1.89-8.65.73.73,0,0,0-.61-.52Z"/><path class="cls-31" d="M48.82,18.26a1.81,1.81,0,0,1,1.08-1c.71-.2,1.57.38,2.18.89a70.68,70.68,0,0,0-1.86-8.54A11,11,0,0,0,48.82,18.26Z"/><path class="cls-27" d="M48.82,18.26a10,10,0,0,0,1.4,3.17,23.46,23.46,0,0,1-1.15-6A14.62,14.62,0,0,1,50,11.07a50.07,50.07,0,0,1,1.62,9.07c.21,3.21.21,6.18.18,7.61l.46.08s.24-4.75,0-8.4c0-.39-.07-.82-.13-1.26a70.68,70.68,0,0,0-1.86-8.54A11,11,0,0,0,48.82,18.26Z"/><path class="cls-32" d="M2.52,66.7a1.71,1.71,0,0,1-.77-.17.69.69,0,0,1-.4-.53c-.09-.6.58-1.28,1.6-2.31a18.73,18.73,0,0,0,2.4-2.76,30.19,30.19,0,0,0,2.24-4,6.81,6.81,0,0,1-1.6.2,5.26,5.26,0,0,1-2.57-.63c-2-1.07-3.42-3.33-3-4.65a1.18,1.18,0,0,1,.43-.59,9.29,9.29,0,0,1,1.35-.74,17.07,17.07,0,0,0,4.65-3.11c.57-.54,1.09-1.09,1.59-1.62a14.54,14.54,0,0,1,3.52-3,9.26,9.26,0,0,1,3.6-1.09c1.14-.12,2.44-.36,4-.63A60.56,60.56,0,0,1,30.64,39.8a31.2,31.2,0,0,1,6.71.69.37.37,0,0,1,.29.36v7a.33.33,0,0,1,0,.17s-.14.28-.4.69l0,0c-.91,1.45-3.29,4.77-6.14,4.77a3.66,3.66,0,0,1-1.45-.3c-.67,1.17-3.23,5.12-7.52,5.12a10.13,10.13,0,0,1-6.46-2.84,8.72,8.72,0,0,1-4.32,2.08A15.21,15.21,0,0,1,8,63.45c-2,2-4.1,3.25-5.46,3.25Z"/><path d="M30.64,40.16a30.59,30.59,0,0,1,6.64.69v7s-.14.27-.39.67h0C36,49.94,33.7,53.13,31,53.13a3.48,3.48,0,0,1-1.61-.4S26.81,58,22.06,58c-1.84,0-4-.79-6.46-3A8.55,8.55,0,0,1,11,57.23a15.46,15.46,0,0,1-3.28,6c-1.93,1.92-4,3.14-5.2,3.14a1.4,1.4,0,0,1-.6-.13c-1.07-.57,2-2.54,3.73-5.07a29.73,29.73,0,0,0,2.61-4.78l0,0-.12,0-.12,0a6.36,6.36,0,0,1-2,.32,5,5,0,0,1-2.4-.58C1.66,55.16.44,53,.79,52a.76.76,0,0,1,.29-.41c1-.75,3.33-1.32,6-3.88,1.84-1.74,3.05-3.5,5-4.61a9,9,0,0,1,3.46-1h.06c3.33-.34,8.81-1.89,15-1.89m0-.73a60.88,60.88,0,0,0-11.17,1.28c-1.5.27-2.8.51-3.87.62h-.08a9.44,9.44,0,0,0-3.71,1.13,14.53,14.53,0,0,0-3.61,3.1c-.5.52-1,1.07-1.58,1.61a16.73,16.73,0,0,1-4.56,3A9.37,9.37,0,0,0,.65,51a1.54,1.54,0,0,0-.55.76c-.5,1.5,1,3.92,3.14,5.09A5.65,5.65,0,0,0,6,57.52a7.27,7.27,0,0,0,1-.06,35.58,35.58,0,0,1-1.9,3.27,19.29,19.29,0,0,1-2.35,2.7C1.56,64.58.87,65.28,1,66.05a1.07,1.07,0,0,0,.59.8,2.07,2.07,0,0,0,.94.22c1.46,0,3.64-1.29,5.71-3.36a15.51,15.51,0,0,0,3.33-5.82,9.3,9.3,0,0,0,4-1.93,10.28,10.28,0,0,0,6.46,2.73c4.19,0,6.79-3.58,7.68-5a4.05,4.05,0,0,0,1.29.21c2.92,0,5.28-3.07,6.45-4.93l0,0c.26-.44.41-.72.41-.72a.67.67,0,0,0,.09-.34v-7a.74.74,0,0,0-.58-.72,32,32,0,0,0-6.79-.7Z"/><path class="cls-26" d="M5.65,61.14C4,63.67.85,65.64,1.92,66.21s3.51-.73,5.8-3a15.46,15.46,0,0,0,3.28-6A8.55,8.55,0,0,0,15.6,55c8.8,7.81,13.82-2.26,13.82-2.26,4.13,2.14,7.86-4.9,7.86-4.9v-7c-8.7-1.92-17.11.74-21.6,1.2a9.08,9.08,0,0,0-3.52,1.05c1,1.28,3.38,3.88,6.28,4,3.84.15,5-1,5-1a9.85,9.85,0,0,0,5.32,1.64c2.89-.08,3.05,1,1.95,2.11a3,3,0,0,1-2.73.63s-3.44,4.3-6.49,4.37-6.88-2.73-6.88-2.73S8.38,57.76.79,52c-.35,1,.87,3.16,2.8,4.21a5.77,5.77,0,0,0,4.67.15A29.73,29.73,0,0,1,5.65,61.14Z"/><path class="cls-27" d="M3.59,56.21A5.69,5.69,0,0,0,8,56.47l.12,0,.12,0,0,0c-4.41-.46-6.44-3-6.24-3.51s6.83-3.55,8.18-6.42,6.23-3.91,6.23-3.91l-.81-.46a9,9,0,0,0-3.46,1c-2,1.11-3.2,2.87-5,4.61-2.71,2.56-5,3.13-6,3.88A.76.76,0,0,0,.79,52C.44,53,1.66,55.16,3.59,56.21Z"/><path class="cls-27" d="M1.92,66.21c1.07.55,3.51-.73,5.8-3a15.46,15.46,0,0,0,3.28-6A8.55,8.55,0,0,0,15.6,55c8.8,7.81,13.82-2.26,13.82-2.26,3.33,1.72,6.4-2.51,7.46-4.22-.14.17-2.47,2.83-4.78,3.34s-3.34-.17-3.34-.17-1.73,4.75-6.22,5.1-7.38-3.28-7.38-3.28a8.86,8.86,0,0,1-2.7,2.28,4,4,0,0,1-1.88.36S7.54,65.05,1.92,66.21Z"/><path class="cls-33" d="M17.77,43.68s-4.81.11-6.16,3-5,4.86-6.8,5.51,2.58,2,5.86,1.46,4.46-2.28,4.46-2.28a8,8,0,0,0,6.15,2.42c4.17,0,6.28-4.71,6.28-4.71s2.21,1.89,3.51.36S25,43.91,25,43.91"/><ellipse class="cls-27" cx="12.67" cy="46.25" rx="2.21" ry="0.99" transform="translate(-18.98 10.23) rotate(-25.99)"/><ellipse class="cls-27" cx="11.76" cy="49.35" rx="1.32" ry="0.68" transform="translate(-20.44 10.14) rotate(-25.99)"/><path class="cls-34" d="M30.73,44.74a13.26,13.26,0,0,1-6.56-2,9.46,9.46,0,0,1-4.18,1,8.43,8.43,0,0,1-6.92-3.84h-.24c-1.05,0-3.52-.53-4-5.35a9,9,0,0,1-4.33-6.7,22,22,0,0,1,.16-4.3c.07-.62.16-1.24.25-1.86a30.17,30.17,0,0,0,.42-6.6l-.05-.8c-.2-2.75-.35-4.93.71-6.07a2.76,2.76,0,0,1,2.15-.79A8.26,8.26,0,0,1,10,7.73c3.92.92,12.63,5.2,20.56,13.24a55.09,55.09,0,0,1,7,8.66c.07.06.07.11.07.2V41.52a.35.35,0,0,1-.08.22,4.86,4.86,0,0,1-.39.43A9.27,9.27,0,0,1,30.73,44.74Z"/><path d="M8.13,7.85a7.7,7.7,0,0,1,1.8.24c3.88.9,12.59,5.23,20.38,13.14a55.12,55.12,0,0,1,7,8.59h0V41.52a4.41,4.41,0,0,1-.36.38,8.84,8.84,0,0,1-6.19,2.47,12.88,12.88,0,0,1-6.55-2,9.17,9.17,0,0,1-4.19,1c-2.09,0-4.62-.81-6.75-3.86a2.31,2.31,0,0,1-.41,0c-.94,0-3.24-.49-3.66-5.21,0,0-4-2.15-4.31-6.49A20.5,20.5,0,0,1,5,23.64a42.65,42.65,0,0,0,.68-8.52C5.4,10.91,5,7.85,8.13,7.85m0-.73A3.15,3.15,0,0,0,5.71,8c-1.17,1.25-1,3.5-.81,6.35l.06.8a30.68,30.68,0,0,1-.42,6.51c-.09.63-.18,1.25-.25,1.87a22.06,22.06,0,0,0-.16,4.38,9.29,9.29,0,0,0,4.35,6.88c.56,5,3.22,5.5,4.35,5.5h.07A8.62,8.62,0,0,0,20,44.14a10,10,0,0,0,4.17-1,13.46,13.46,0,0,0,6.57,1.91,9.67,9.67,0,0,0,6.7-2.67c.26-.26.4-.44.42-.46a.75.75,0,0,0,.16-.45V29.83a.75.75,0,0,0-.15-.44,56,56,0,0,0-7-8.68c-8-8.09-16.78-12.41-20.74-13.33a8.4,8.4,0,0,0-2-.26Z"/><path class="cls-35" d="M26.42,21.23S12.18,10.51,8.83,11.06s.94,6.48,0,10.63S6.42,28.14,10,32.17"/><path class="cls-26" d="M4.86,27.88c.33,4.34,4.31,6.49,4.31,6.49.53,6,4.07,5.18,4.07,5.18a8.18,8.18,0,0,0,10.94,2.81c7.09,4.17,11.49.76,12.74-.46a4.41,4.41,0,0,0,.36-.38V29.83h0a55.12,55.12,0,0,0-7-8.59c1.63,3,3.51,7.14,2.7,8.79-1.35,2.75-5.34-4.52-10-6.75s-8.94,0-9.52,3.2S16.29,36,21,36.33s4.41,3.6.36,3.83S14,36.33,14,36.33a3.82,3.82,0,0,1-2.82-4.14A11.61,11.61,0,0,1,5,23.64,20.5,20.5,0,0,0,4.86,27.88Z"/><path class="cls-27" d="M4.86,27.88c.33,4.34,4.31,6.49,4.31,6.49.53,6,4.07,5.18,4.07,5.18a8.18,8.18,0,0,0,10.94,2.81c7.09,4.17,11.49.76,12.74-.46a15.86,15.86,0,0,1-5.67,1c-4.78,0-6.92-2.29-6.92-2.29a9.94,9.94,0,0,1-5.63,1.23c-2.74-.44-4.63-3.61-4.63-3.61-4.31.44-3.63-4.36-3.63-4.36a7.79,7.79,0,0,1-3.87-4.38c-1.06-3.13-.09-7.18.32-10.23S6.18,11.6,7,10s3.72-.91,12.57,4S37,29.49,37.27,29.82C28.52,16.41,15,9.28,9.93,8.09s-4.57,2.15-4.24,7S4.52,23.54,4.86,27.88Z"/><path class="cls-36" d="M18.7,36.7A6.69,6.69,0,0,1,12,30a6.69,6.69,0,0,1,6.68-6.68A6.69,6.69,0,0,1,25.38,30a6.58,6.58,0,0,1-.56,2.66A6.67,6.67,0,0,1,18.7,36.7Z"/><path d="M18.7,23.7A6.32,6.32,0,1,1,12.38,30a6.25,6.25,0,0,1,.67-2.83A6.33,6.33,0,0,1,18.7,23.7m0-.73a7,7,0,0,0-6.3,3.9A6.86,6.86,0,0,0,11.65,30a7,7,0,1,0,7-7Z"/><path class="cls-37" d="M12.38,30a6.32,6.32,0,0,0,12.11,2.51L13.05,27.19A6.25,6.25,0,0,0,12.38,30Z"/><g class="cls-38"><path class="cls-39" d="M18.7,24.43A5.59,5.59,0,0,1,24.28,30a5.45,5.45,0,0,1-.46,2.22,5.59,5.59,0,1,1-5.12-7.81m0-.73a6.33,6.33,0,0,0-5.65,3.49A6.25,6.25,0,0,0,12.38,30,6.32,6.32,0,1,0,18.7,23.7Z"/></g><ellipse cx="18.19" cy="32.18" rx="0.99" ry="1.7" transform="translate(-18.72 30.08) rotate(-57.26)"/><ellipse class="cls-27" cx="18.99" cy="14.99" rx="1.09" ry="2.43" transform="translate(-2.47 26.18) rotate(-65.83)"/><ellipse class="cls-27" cx="15.73" cy="16.42" rx="0.75" ry="1.45" transform="translate(-5.69 24.05) rotate(-65.83)"/><ellipse class="cls-27" cx="26.81" cy="40.59" rx="1.09" ry="2.43" transform="matrix(0.26, -0.96, 0.96, 0.26, -19.42, 55.74)"/><ellipse class="cls-27" cx="29.81" cy="38.69" rx="0.75" ry="1.45" transform="translate(-15.37 57.23) rotate(-74.7)"/><path class="cls-40" d="M121.62,29.22a8.13,8.13,0,0,1-5.16-1.76.42.42,0,0,1-.12-.26c0-.35-.32-8.59,3.43-10.55s9.08-6,10.79-9a.39.39,0,0,1,.08-.1,22.27,22.27,0,0,1,2.65-1.81,2.91,2.91,0,0,1,1.22-.42.75.75,0,0,1,.43.12c.13.1.38.28.39,2.24,0,4.74-1.31,14.78-6.78,18.9a13.85,13.85,0,0,1-4,2.13A9.67,9.67,0,0,1,121.62,29.22Z"/><path d="M134.51,5.7a.38.38,0,0,1,.22.06c.64.47.47,15.38-6.4,20.55a13.33,13.33,0,0,1-3.85,2.07,9.17,9.17,0,0,1-2.86.47,7.79,7.79,0,0,1-4.91-1.66s-.36-8.34,3.23-10.22,9.07-5.91,10.93-9.12a22.63,22.63,0,0,1,2.59-1.77,2.75,2.75,0,0,1,1-.38m0-.73h0a3.09,3.09,0,0,0-1.39.47,21.93,21.93,0,0,0-2.7,1.84.91.91,0,0,0-.18.21c-1.67,2.88-6.82,6.83-10.64,8.83S116,26.86,116,27.22a.72.72,0,0,0,.24.51,8.53,8.53,0,0,0,5.4,1.85,10.12,10.12,0,0,0,3.08-.5,14.24,14.24,0,0,0,4.07-2.19c5.59-4.21,7-14.39,6.93-19.19,0-2-.26-2.32-.55-2.53a1.06,1.06,0,0,0-.64-.2Z"/><path class="cls-26" d="M119.17,27s4-3.05,5.52-7.1,2.41-7,4.17-8A26.8,26.8,0,0,0,132,9.63s-.59,5.11-.65,8-2.91,9-6.92,10S119.17,27,119.17,27Z"/><path class="cls-27" d="M128.33,26.31a13.33,13.33,0,0,1-3.85,2.07,24.34,24.34,0,0,0,7.72-10.12,22.43,22.43,0,0,0,1.24-12.15l0,0c.56-.3,1-.47,1.27-.32C135.37,6.23,135.2,21.14,128.33,26.31Z"/><path class="cls-28" d="M114.42,28.08a.36.36,0,0,1-.37-.34c-.06-1.22.38-6.59,1.5-9.25,1-2.34.52-5.72.42-6.37a.47.47,0,0,1,.06-.33.43.43,0,0,1,.25-.19l.33,0c1.88,0,3,1.58,3.54,2.62A17.68,17.68,0,0,1,123.46,10c.31-.35.65-.71,1-1.09A9,9,0,0,0,127,3.77a.36.36,0,0,1,.31-.35h0a.36.36,0,0,1,.34.23,9,9,0,0,1,.2,4.94,23.48,23.48,0,0,0,5.66-8,.36.36,0,0,1,.34-.23h.06a.35.35,0,0,1,.3.35,16,16,0,0,1-4.56,11.77,30.62,30.62,0,0,1-7.49,5.62c-.46.26-.81.46-1,.61-.69.49-1,1.08-.87,1.58.07.25.25.41.38.41h0a1.6,1.6,0,0,0,1-.42.35.35,0,0,1,.25-.1.4.4,0,0,1,.15,0,.37.37,0,0,1,.22.35c-.11,2-1.77,2.43-2.76,2.67-.23.06-.45.11-.61.17-.31.22-.4,2.22-.18,4.27a.36.36,0,0,1-.1.28.34.34,0,0,1-.27.12Z"/><path class="cls-29" d="M133.85.73a15.73,15.73,0,0,1-4.47,11.51h0c-3.33,3.6-7.46,5.48-8.44,6.17-1.72,1.21-1,2.63-.29,2.66h0a1.93,1.93,0,0,0,1.21-.53c-.11,2.2-2.29,2.17-3.14,2.53s-.41,4.64-.41,4.64h-3.93c-.06-1.07.33-6.4,1.47-9.09,1-2.44.54-5.94.44-6.57a.65.65,0,0,0,0-.1h.3c2.49,0,3.58,3.23,3.58,3.23.51-1.91,2.07-3.38,4.54-6.07a9.33,9.33,0,0,0,2.58-5.33,9.68,9.68,0,0,1-.11,5.85,23.52,23.52,0,0,0,6.65-8.9M121.9,20.55h0M133.85,0a.74.74,0,0,0-.69.47,23.13,23.13,0,0,1-4.77,7.11,8.62,8.62,0,0,0-.4-4.05.72.72,0,0,0-.68-.48h-.11a.74.74,0,0,0-.62.69,8.68,8.68,0,0,1-2.39,4.86c-.35.39-.68.75-1,1.08a22.87,22.87,0,0,0-3.06,3.75,4.25,4.25,0,0,0-3.52-2.22h-.37a.75.75,0,0,0-.52.3.76.76,0,0,0-.12.59s0,0,0,.05c.06.39.57,3.88-.4,6.17-1.22,2.9-1.58,8.4-1.52,9.42a.73.73,0,0,0,.73.69h3.93a.72.72,0,0,0,.54-.24.75.75,0,0,0,.19-.57,12.22,12.22,0,0,1,.07-3.93l.45-.12c1-.24,2.87-.7,3-2.93,0,0,0-.07,0-.11a.73.73,0,0,0-.73-.73h0a.73.73,0,0,0-.47.21,1.17,1.17,0,0,1-.7.32.5.5,0,0,1-.09-.26c0-.33.26-.72.75-1.07.19-.13.54-.34,1-.59a31,31,0,0,0,7.56-5.68s0,0,0,0a16.39,16.39,0,0,0,4.64-12A.75.75,0,0,0,134,0Z"/><path class="cls-30" d="M120.64,21.08a1.9,1.9,0,0,0,1.26-.53c-.11,2.2-2.29,2.17-3.14,2.53s-.41,4.64-.41,4.64h-1.5a11.67,11.67,0,0,1-.15-2.41c.11-5.23,1.65-8.34,8.87-12.33S133.85.73,133.85.73c.39,11.51-11.2,16.48-12.92,17.69S119.93,21.05,120.64,21.08Z"/><path class="cls-27" d="M129.38,12.24c.2-.29,3.51-5,3.71-8.58,0,0-2.88,5.21-6.52,6.78A19,19,0,0,0,127,7.11c-.2-.08-.9,2.27-2.35,3.48s-3.66,2.81-4.55,6.15c0,0-1.26-4-3.44-4.46a.66.66,0,0,1-.37-.22.65.65,0,0,0,0-.1c2.71-.27,3.88,3.22,3.88,3.22.51-1.91,2.07-3.38,4.54-6.07a9.33,9.33,0,0,0,2.58-5.33,9.68,9.68,0,0,1-.11,5.85,23.52,23.52,0,0,0,6.65-8.9A15.73,15.73,0,0,1,129.38,12.24Z"/><path class="cls-28" d="M113.77,28.2a.4.4,0,0,1-.23-.08.37.37,0,0,1-.13-.27c0-.05-.24-4.82,0-8.44,0-.4.07-.84.13-1.29a73.12,73.12,0,0,1,1.87-8.59.37.37,0,0,1,.31-.26h0a.37.37,0,0,1,.31.17,11.43,11.43,0,0,1,1.44,8.91,10.46,10.46,0,0,1-1.46,3.29,46.94,46.94,0,0,0,.13,5.81.37.37,0,0,1-.3.39l-2.06.35Z"/><path class="cls-29" d="M115.77,9.63a11,11,0,0,1,1.39,8.63,10.4,10.4,0,0,1-1.39,3.17c-.3.41.06,6.05.06,6.05l-1.59.27-.47.08s-.23-4.75,0-8.4c0-.39.07-.82.13-1.26a72,72,0,0,1,1.87-8.54m0-.73h-.1a.73.73,0,0,0-.61.52,72.8,72.8,0,0,0-1.89,8.65c-.06.46-.1.9-.13,1.31-.23,3.64,0,8.28,0,8.48a.7.7,0,0,0,.28.53.69.69,0,0,0,.45.16h.13l.46-.08L116,28.2a.75.75,0,0,0,.61-.77,48.87,48.87,0,0,1-.14-5.66,10.86,10.86,0,0,0,1.45-3.33,11.75,11.75,0,0,0-1.48-9.19.72.72,0,0,0-.62-.35Z"/><path class="cls-31" d="M117.16,18.26a1.76,1.76,0,0,0-1.08-1c-.7-.2-1.57.38-2.18.89a72,72,0,0,1,1.87-8.54A11,11,0,0,1,117.16,18.26Z"/><path class="cls-27" d="M117.16,18.26a10.4,10.4,0,0,1-1.39,3.17,23.61,23.61,0,0,0,1.14-6,14.62,14.62,0,0,0-.88-4.38,50.07,50.07,0,0,0-1.62,9.07c-.21,3.21-.2,6.18-.17,7.61l-.47.08s-.23-4.75,0-8.4c0-.39.07-.82.13-1.26a72,72,0,0,1,1.87-8.54A11,11,0,0,1,117.16,18.26Z"/><path class="cls-41" d="M163.46,66.7c-1.36,0-3.45-1.24-5.45-3.25a15.27,15.27,0,0,1-3.31-5.89,8.72,8.72,0,0,1-4.32-2.08,10.08,10.08,0,0,1-6.46,2.84c-4.28,0-6.85-4-7.51-5.12a3.69,3.69,0,0,1-1.45.3c-2.87,0-5.27-3.36-6.16-4.8-.27-.42-.41-.7-.41-.7a.34.34,0,0,1,0-.17v-7a.37.37,0,0,1,.29-.36,31.33,31.33,0,0,1,6.71-.69,60.35,60.35,0,0,1,11.11,1.27c1.51.27,2.81.51,3.89.62a9.37,9.37,0,0,1,3.66,1.1,14.35,14.35,0,0,1,3.52,3c.5.53,1,1.08,1.6,1.62a16.78,16.78,0,0,0,4.65,3.11,8.89,8.89,0,0,1,1.35.74,1.17,1.17,0,0,1,.42.59c.44,1.32-1,3.58-3,4.65a5.29,5.29,0,0,1-2.57.63,7,7,0,0,1-1.61-.2,30.51,30.51,0,0,0,2.25,4A19.29,19.29,0,0,0,163,63.69c1,1,1.7,1.71,1.61,2.31a.73.73,0,0,1-.41.53A1.71,1.71,0,0,1,163.46,66.7Z"/><path d="M135.34,40.16c6.16,0,11.63,1.55,15,1.89h.06a8.94,8.94,0,0,1,3.45,1c2,1.11,3.21,2.87,5.05,4.61,2.7,2.56,5,3.13,6,3.88a.78.78,0,0,1,.3.41c.35,1-.88,3.16-2.81,4.21a5,5,0,0,1-2.39.58,6.43,6.43,0,0,1-2-.32l-.12,0-.11,0-.05,0a30.73,30.73,0,0,0,2.61,4.78c1.69,2.53,4.8,4.5,3.73,5.07a1.4,1.4,0,0,1-.6.13c-1.23,0-3.27-1.22-5.19-3.14a15.31,15.31,0,0,1-3.28-6,8.5,8.5,0,0,1-4.6-2.24c-2.46,2.18-4.63,3-6.47,3-4.75,0-7.36-5.23-7.36-5.23a3.44,3.44,0,0,1-1.6.4c-2.67,0-5-3.19-5.85-4.62h0c-.25-.4-.39-.67-.39-.67v-7a30.5,30.5,0,0,1,6.63-.69m0-.73a32.08,32.08,0,0,0-6.79.7.74.74,0,0,0-.57.72v7a.77.77,0,0,0,.08.34s.15.28.42.72l0,0c1.17,1.86,3.53,4.92,6.45,4.92a4.1,4.1,0,0,0,1.29-.21c.88,1.46,3.49,5,7.67,5A10.28,10.28,0,0,0,150.38,56a9.3,9.3,0,0,0,4,1.93,15.51,15.51,0,0,0,3.33,5.82c2.07,2.07,4.26,3.36,5.71,3.36a2,2,0,0,0,.94-.22,1.11,1.11,0,0,0,.6-.8c.12-.77-.57-1.47-1.71-2.62a18.66,18.66,0,0,1-2.35-2.7,31.47,31.47,0,0,1-1.9-3.27,7.06,7.06,0,0,0,1,.06,5.62,5.62,0,0,0,2.74-.67c2.15-1.17,3.65-3.59,3.15-5.08a1.55,1.55,0,0,0-.56-.78,10.23,10.23,0,0,0-1.4-.77,16.58,16.58,0,0,1-4.56-3c-.57-.54-1.09-1.09-1.58-1.61a14.9,14.9,0,0,0-3.61-3.1,9.54,9.54,0,0,0-3.73-1.13h0c-1.08-.11-2.38-.35-3.88-.62a61,61,0,0,0-11.18-1.28Z"/><path class="cls-26" d="M160.33,61.14c1.69,2.53,4.8,4.5,3.73,5.07s-3.51-.73-5.79-3a15.31,15.31,0,0,1-3.28-6,8.5,8.5,0,0,1-4.6-2.24c-8.8,7.81-13.83-2.26-13.83-2.26-4.12,2.14-7.85-4.9-7.85-4.9v-7c8.7-1.92,17.1.74,21.6,1.2a9,9,0,0,1,3.51,1.05c-1,1.28-3.38,3.88-6.27,4-3.85.15-5-1-5-1a9.79,9.79,0,0,1-5.31,1.64c-2.9-.08-3.05,1-2,2.11a3,3,0,0,0,2.74.63s3.44,4.3,6.48,4.37,6.88-2.73,6.88-2.73,6.25,5.66,13.84-.1c.35,1-.88,3.16-2.81,4.21a5.78,5.78,0,0,1-4.67.15A30.73,30.73,0,0,0,160.33,61.14Z"/><path class="cls-27" d="M162.39,56.21a5.7,5.7,0,0,1-4.39.26l-.12,0-.11,0-.05,0c4.41-.46,6.45-3,6.24-3.51s-6.83-3.55-8.18-6.42-6.23-3.91-6.23-3.91l.82-.46a8.94,8.94,0,0,1,3.45,1c2,1.11,3.21,2.87,5.05,4.61,2.7,2.56,5,3.13,6,3.88a.78.78,0,0,1,.3.41C165.55,53,164.32,55.16,162.39,56.21Z"/><path class="cls-27" d="M164.06,66.21c-1.07.55-3.51-.73-5.79-3a15.31,15.31,0,0,1-3.28-6,8.5,8.5,0,0,1-4.6-2.24c-8.8,7.81-13.83-2.26-13.83-2.26-3.32,1.72-6.39-2.51-7.45-4.22.14.17,2.47,2.83,4.77,3.34s3.34-.17,3.34-.17,1.73,4.75,6.22,5.1,7.39-3.28,7.39-3.28a8.78,8.78,0,0,0,2.69,2.28,4,4,0,0,0,1.88.36S158.44,65.05,164.06,66.21Z"/><path class="cls-42" d="M148.22,43.68s4.81.11,6.16,3,5,4.86,6.8,5.51-2.58,2-5.87,1.46-4.45-2.28-4.45-2.28a8,8,0,0,1-6.16,2.42c-4.16,0-6.27-4.71-6.27-4.71s-2.22,1.89-3.52.36S141,43.91,141,43.91"/><ellipse class="cls-27" cx="153.32" cy="46.25" rx="0.99" ry="2.21" transform="translate(44.57 163.8) rotate(-64.01)"/><ellipse class="cls-27" cx="154.22" cy="49.35" rx="0.68" ry="1.32" transform="translate(42.28 166.36) rotate(-64.01)"/><path class="cls-43" d="M135.26,44.74a9.28,9.28,0,0,1-6.45-2.57,4.86,4.86,0,0,1-.39-.43.35.35,0,0,1-.08-.22V29.83a.38.38,0,0,1,.11-.26,54.86,54.86,0,0,1,7-8.6c7.94-8,16.64-12.32,20.56-13.24a8.33,8.33,0,0,1,1.89-.25,2.79,2.79,0,0,1,2.15.79c1.06,1.14.9,3.32.71,6.08l-.06.79a30.77,30.77,0,0,0,.43,6.6c.09.62.17,1.24.25,1.86a21.31,21.31,0,0,1,.15,4.3,9,9,0,0,1-4.33,6.7c-.49,4.82-3,5.35-4,5.35h-.24A8.42,8.42,0,0,1,146,43.78a9.5,9.5,0,0,1-4.18-1A13.23,13.23,0,0,1,135.26,44.74Z"/><path d="M157.86,7.85c3.16,0,2.72,3.06,2.44,7.27a42.69,42.69,0,0,0,.67,8.52,21.21,21.21,0,0,1,.16,4.24c-.33,4.34-4.31,6.49-4.31,6.49-.42,4.72-2.72,5.21-3.67,5.21a2.45,2.45,0,0,1-.41,0c-2.13,3.05-4.66,3.86-6.75,3.86a9.17,9.17,0,0,1-4.19-1,12.88,12.88,0,0,1-6.54,2,8.82,8.82,0,0,1-6.19-2.47,4.41,4.41,0,0,1-.36-.38V29.83h0a55.7,55.7,0,0,1,7-8.59c7.8-7.91,16.51-12.24,20.39-13.14a7.63,7.63,0,0,1,1.8-.24m0-.73h0a8.48,8.48,0,0,0-2,.26c-4,.92-12.75,5.24-20.74,13.33a56.23,56.23,0,0,0-7,8.7.77.77,0,0,0-.13.42V41.52a.74.74,0,0,0,.15.45,5.86,5.86,0,0,0,.43.46,9.65,9.65,0,0,0,6.7,2.67,13.43,13.43,0,0,0,6.56-1.91,10.06,10.06,0,0,0,4.17,1,8.64,8.64,0,0,0,7.1-3.83h.06c1.14,0,3.79-.54,4.36-5.5a9.31,9.31,0,0,0,4.34-6.88,22.14,22.14,0,0,0-.15-4.38c-.08-.62-.16-1.24-.25-1.87a29.42,29.42,0,0,1-.42-6.51l.05-.8c.2-2.85.36-5.1-.81-6.35a3.13,3.13,0,0,0-2.41-.9Z"/><path class="cls-44" d="M139.56,21.23s14.25-10.72,17.59-10.17-.94,6.48,0,10.63,2.42,6.45-1.17,10.48"/><path class="cls-26" d="M161.13,27.88c-.33,4.34-4.31,6.49-4.31,6.49-.53,6-4.08,5.18-4.08,5.18a8.18,8.18,0,0,1-10.94,2.81c-7.08,4.17-11.49.76-12.73-.46a4.41,4.41,0,0,1-.36-.38V29.83h0a55.7,55.7,0,0,1,7-8.59c-1.62,3-3.51,7.14-2.7,8.79,1.35,2.75,5.34-4.52,10-6.75s8.93,0,9.51,3.2-2.81,9.56-7.57,9.86-4.4,3.6-.36,3.83S152,36.33,152,36.33a3.82,3.82,0,0,0,2.81-4.14A11.61,11.61,0,0,0,161,23.64,21.21,21.21,0,0,1,161.13,27.88Z"/><path class="cls-27" d="M161.13,27.88c-.33,4.34-4.31,6.49-4.31,6.49-.53,6-4.08,5.18-4.08,5.18a8.18,8.18,0,0,1-10.94,2.81c-7.08,4.17-11.49.76-12.73-.46a15.79,15.79,0,0,0,5.66,1c4.78,0,6.92-2.29,6.92-2.29a10,10,0,0,0,5.64,1.23c2.73-.44,4.62-3.61,4.62-3.61,4.31.44,3.64-4.36,3.64-4.36a7.83,7.83,0,0,0,3.87-4.38c1.05-3.13.09-7.18-.33-10.23S159.8,11.6,159,10s-3.73-.91-12.58,4S129,29.49,128.71,29.82C137.46,16.41,151,9.28,156.06,8.09s4.57,2.15,4.24,7S161.46,23.54,161.13,27.88Z"/><path class="cls-36" d="M147.29,36.7a6.69,6.69,0,0,1-6.13-4,6.57,6.57,0,0,1-.55-2.66,6.68,6.68,0,0,1,12.65-3,6.58,6.58,0,0,1,.71,3A6.69,6.69,0,0,1,147.29,36.7Z"/><path d="M147.29,23.7a6.31,6.31,0,0,1,5.64,3.49A6.25,6.25,0,0,1,153.6,30a6.31,6.31,0,0,1-12.1,2.51A6.2,6.2,0,0,1,141,30a6.32,6.32,0,0,1,6.32-6.32m0-.73a7.05,7.05,0,0,0-7,7.05,6.9,6.9,0,0,0,.59,2.8,7,7,0,0,0,13.5-2.8,6.86,6.86,0,0,0-.75-3.15,7,7,0,0,0-6.29-3.9Z"/><path class="cls-45" d="M153.6,30a6.31,6.31,0,0,1-12.1,2.51l11.43-5.34A6.25,6.25,0,0,1,153.6,30Z"/><g class="cls-38"><path class="cls-39" d="M147.29,24.43a5.59,5.59,0,1,1-5.13,7.81,5.59,5.59,0,0,1,5.13-7.81m0-.73A6.32,6.32,0,0,0,141,30a6.2,6.2,0,0,0,.53,2.51,6.31,6.31,0,1,0,5.79-8.83Z"/></g><ellipse cx="147.79" cy="32.18" rx="1.7" ry="0.99" transform="translate(6.07 85.04) rotate(-32.74)"/><ellipse class="cls-27" cx="147" cy="14.99" rx="2.43" ry="1.09" transform="translate(6.74 61.49) rotate(-24.17)"/><ellipse class="cls-27" cx="150.26" cy="16.42" rx="1.45" ry="0.75" transform="translate(6.45 62.95) rotate(-24.17)"/><ellipse class="cls-27" cx="139.17" cy="40.59" rx="2.43" ry="1.09" transform="translate(-5.78 38.17) rotate(-15.3)"/><ellipse class="cls-27" cx="136.17" cy="38.69" rx="1.45" ry="0.75" transform="translate(-5.38 37.31) rotate(-15.3)"/><path class="cls-46" d="M5.27,20.85a21.88,21.88,0,0,1,2-3.28,29,29,0,0,1,2.45-3A25,25,0,0,1,12.57,12a17,17,0,0,1,3.29-2c-1,.82-2,1.62-2.88,2.48s-1.81,1.75-2.67,2.67S8.61,17,7.76,18,6.11,19.88,5.27,20.85Z"/><path class="cls-47" d="M5.74,23.56a40.44,40.44,0,0,1,2.52-3.44C9.15,19,10.1,18,11.08,16.92A35.9,35.9,0,0,1,14.18,14a19,19,0,0,1,3.5-2.45c-1.08.93-2.08,1.92-3.07,2.92s-2,2-2.94,3L8.74,20.54C7.75,21.56,6.77,22.58,5.74,23.56Z"/><path class="cls-48" d="M7.78,24.54a36.54,36.54,0,0,1,2.49-3.3c.87-1.06,1.81-2.07,2.77-3.06a38.34,38.34,0,0,1,3.05-2.79A20.88,20.88,0,0,1,19.5,13c-1,.93-2,1.86-3,2.82l-2.89,2.9-2.89,2.91C9.77,22.63,8.8,23.6,7.78,24.54Z"/><path class="cls-49" d="M160.72,20.85c-.84-1-1.66-1.94-2.5-2.88s-1.68-1.89-2.55-2.8-1.76-1.79-2.67-2.67-1.89-1.66-2.88-2.48a17,17,0,0,1,3.29,2,23.38,23.38,0,0,1,2.86,2.58,27.79,27.79,0,0,1,2.45,3A22.8,22.8,0,0,1,160.72,20.85Z"/><path class="cls-50" d="M160.25,23.56c-1-1-2-2-3-3l-2.93-3.05c-1-1-1.95-2-2.93-3s-2-2-3.08-2.92A19,19,0,0,1,151.81,14a37.41,37.41,0,0,1,3.1,2.94c1,1,1.93,2.09,2.81,3.2A40.55,40.55,0,0,1,160.25,23.56Z"/><path class="cls-51" d="M158.2,24.54c-1-.94-2-1.91-3-2.87l-2.89-2.91-2.88-2.9c-1-1-2-1.89-3-2.82a20.46,20.46,0,0,1,3.41,2.35,38.34,38.34,0,0,1,3.05,2.79c1,1,1.9,2,2.77,3.06A34.77,34.77,0,0,1,158.2,24.54Z"/></g></g></g></svg>