<svg xmlns="http://www.w3.org/2000/svg" xmlns:xlink="http://www.w3.org/1999/xlink" viewBox="0 0 23.94 28.08"><defs><style>.cls-1{isolation:isolate;}.cls-2{fill:url(#radial-gradient);}.cls-3{fill:#700000;}.cls-4{fill:#fff;mix-blend-mode:overlay;}</style><radialGradient id="radial-gradient" cx="11.97" cy="14.04" r="12.42" gradientUnits="userSpaceOnUse"><stop offset="0" stop-color="#c9102b"/><stop offset="1" stop-color="#a30017"/></radialGradient></defs><g class="cls-1"><g id="Layer_2" data-name="Layer 2"><g id="Layer_1-2" data-name="Layer 1"><path class="cls-2" d="M15.33,27.45c-5.48,0-12.72-1.91-13.74-2.63a.63.63,0,0,1-.25-.63s0-.28.12-.78A57.12,57.12,0,0,0,.65,2.62a.65.65,0,0,1,.13-.57.66.66,0,0,1,.48-.22h.07s3.21.31,6.9.31a45.11,45.11,0,0,0,6-.35C19.83,1,22.6.64,22.6.64h.08A.59.59,0,0,1,23.1.8a.6.6,0,0,1,.21.48c0,.7-.52,17.21-1.19,22.79a3.06,3.06,0,0,1-.31,1C21,26.66,18.82,27.45,15.33,27.45Z"/><path class="cls-3" d="M22.68,1.26S22.17,18.38,21.49,24a2.44,2.44,0,0,1-.24.82c-.77,1.48-3.12,2-5.92,2C9.92,26.81,2.8,24.9,2,24.3c0,0,0-.28.13-.8.4-2.73,1.47-12-.83-21,0,0,3.2.32,7,.32a44.07,44.07,0,0,0,6.11-.37c5.57-.79,8.34-1.15,8.34-1.15m0-1.26h-.16s-2.84.37-8.36,1.15a43.67,43.67,0,0,1-5.93.35c-3.66,0-6.81-.31-6.84-.31H1.26a1.22,1.22,0,0,0-.95.44A1.25,1.25,0,0,0,0,2.77c2.24,8.85,1.18,18,.8,20.55-.07.48-.12.74-.12.76a1.25,1.25,0,0,0,.51,1.25c1.24.88,8.71,2.75,14.1,2.75,3.8,0,6.1-.88,7-2.68a3.5,3.5,0,0,0,.38-1.25C23.42,18.54,23.92,2,23.94,1.3a1.27,1.27,0,0,0-.41-1A1.29,1.29,0,0,0,22.68,0Zm0,2.53Z"/><path class="cls-4" d="M8.54,5c-2.22-.2-4.28-.52-4.28-.52S5.6,16,3,22a4.1,4.1,0,0,1-.94,1.49c.4-2.73,1.47-12-.83-21a66.77,66.77,0,0,0,13.08,0c5.57-.79,8.34-1.15,8.34-1.15S22.17,18.38,21.5,24a2.7,2.7,0,0,1-.25.82l-1.68-6.23L19.9,4S10.76,5.15,8.54,5Z"/></g></g></g></svg>