<svg xmlns="http://www.w3.org/2000/svg" viewBox="0 0 18.39 40.38"><defs><style>.cls-1{fill:#d6c2a3;}.cls-2{fill:#8f816b;}</style></defs><g id="Layer_2" data-name="Layer 2"><g id="Layer_1-2" data-name="Layer 1"><path class="cls-1" d="M7.89,39.63a.73.73,0,0,1-.49-.19A16.39,16.39,0,0,0,4,37.08a1.32,1.32,0,0,1-.85-.88c-.2-.76.36-1.48,1-2.31a5.65,5.65,0,0,0,1.26-2.18C5.64,30,3.76,26,2.1,24.12c-2-2.35-1.58-10,.24-12.36A30.27,30.27,0,0,1,7,7.42C7.92,6.68,8.78,6,9.45,5.36c.82-.77.66-1.61.38-2.62-.16-.58-.43-1.55.48-1.9a1.46,1.46,0,0,1,.52-.09c1,0,2.59.93,3.74,1.71.78.53,2.84,2.22,3.07,3.74s-7.17,27.13-9,32.91a.77.77,0,0,1-.52.49A.64.64,0,0,1,7.89,39.63Z"/><path class="cls-2" d="M10.83,1.5c.87,0,2.57,1.07,3.33,1.59s2.57,2.09,2.74,3.22-6.59,25.06-9,32.57a16.8,16.8,0,0,0-3.65-2.5c-1.53-.61,1.58-2.53,1.88-4.56S4.37,25.6,2.67,23.63s-1.44-9.21.26-11.41S8,7.72,10,5.91s-.12-4.09.62-4.37a.66.66,0,0,1,.25,0m0-1.5h0A2.26,2.26,0,0,0,10,.14C8.5.73,9,2.39,9.11,2.94c.28,1,.3,1.43-.18,1.88-.64.6-1.49,1.29-2.38,2a30.34,30.34,0,0,0-4.8,4.46C-.31,14-.76,22,1.53,24.61c1.66,1.92,3.31,5.64,3.11,7a5.27,5.27,0,0,1-1.11,1.82c-.71.91-1.45,1.85-1.14,3a2,2,0,0,0,1.3,1.38A15,15,0,0,1,6.9,40a1.51,1.51,0,0,0,1,.38,1.34,1.34,0,0,0,.4-.06,1.47,1.47,0,0,0,1-1C10.72,35,18.67,8,18.38,6.09,18.06,3.93,15.12,1.93,15,1.84,12.27,0,11.19,0,10.83,0Z"/></g></g></svg>